SplineFontDB: 3.0
FontName: Coda
FullName: Coda
FamilyName: Coda
Weight: Book
Copyright: Copyright (c) 2011 by vernon adams. All rights reserved.
Version: 1.000;
ItalicAngle: 0
UnderlinePosition: -103
UnderlineWidth: 102
Ascent: 1638
Descent: 410
sfntRevision: 0x00010000
LayerCount: 2
Layer: 0 0 "Back"  1
Layer: 1 0 "Fore"  0
NeedsXUIDChange: 1
XUID: [1021 14 500265001 3631042]
FSType: 256
OS2Version: 0
OS2_WeightWidthSlopeOnly: 0
OS2_UseTypoMetrics: 1
CreationTime: 1313148003
ModificationTime: 1317942845
PfmFamily: 33
TTFWeight: 400
TTFWidth: 5
LineGap: 0
VLineGap: 0
Panose: 2 11 5 0 0 0 0 0 0 4
OS2TypoAscent: 2154
OS2TypoAOffset: 0
OS2TypoDescent: -691
OS2TypoDOffset: 0
OS2TypoLinegap: 0
OS2WinAscent: 2154
OS2WinAOffset: 0
OS2WinDescent: 691
OS2WinDOffset: 0
HheadAscent: 2154
HheadAOffset: 0
HheadDescent: -691
HheadDOffset: 0
OS2SubXSize: 1331
OS2SubYSize: 1228
OS2SubXOff: 0
OS2SubYOff: 153
OS2SupXSize: 1331
OS2SupYSize: 1228
OS2SupXOff: 0
OS2SupYOff: 716
OS2StrikeYSize: 102
OS2StrikeYPos: 780
OS2Vendor: 'newt'
OS2CodePages: 20000093.00000000
OS2UnicodeRanges: 00000007.00000000.00000000.00000000
Lookup: 4 0 1 "'liga' Standard Ligatures in Latin lookup 0"  {"'liga'"  } ['liga' ('DFLT' <'dflt' > 'latn' <'dflt' > ) ]
Lookup: 258 0 0 "'kern' Horizontal Kerning in Latin lookup 0"  {"'kern' Horizontal Kerning in Latin lookup 0 subtable" [304,0,0] } ['kern' ('DFLT' <'dflt' > 'latn' <'dflt' > ) ]
MarkAttachClasses: 1
DEI: 91125
KernClass2: 3 2 "'kern' Horizontal Kerning in Latin lookup 0 subtable" 
 3 T V
 0 
 11 a c e g o q
 0 {} 0 {} 0 {} -82 {} 0 {} 0 {}
LangName: 1033 "" "" "Regular" "1.000;;Coda" "" "Version 1.000;" "" "Coda is a trademark of vernon adams." "vernon adams" "vernon adams" "Copyright (c) 2011 by vernon adams. All rights reserved." "" "newtypography.co.uk" "" "http://scripts.sil.org/OFL" "" "Coda" "Book" "Coda" 
GaspTable: 1 65535 2
Encoding: UnicodeBmp
Compacted: 1
UnicodeInterp: none
NameList: Adobe Glyph List
DisplaySize: -48
AntiAlias: 1
FitToEm: 1

StartChar: exclam
Encoding: 33 33 5
Width: 492
GlyphClass: 2
Flags: HMW
LayerCount: 2
Fore
SplineSet
148 0 m 1
 149 228 l 1
 345 228 l 1
 346 0 l 1
 148 0 l 1
138 1418 m 0
 138 1510 179 1556 262 1556 c 0
 295 1556 318 1545 333 1522 c 128
 348 1499 355 1444 355 1356 c 128
 355 1268 328 993 273 528 c 0
 270 508 261 498 246 498 c 128
 212 498 218 542 214 581 c 128
 190 796 188 848 161 1124 c 128
 146 1280 138 1378 138 1418 c 0
EndSplineSet
EndChar

StartChar: quotedbl
Encoding: 34 34 6
Width: 697
GlyphClass: 2
Flags: HMW
LayerCount: 2
Fore
SplineSet
125 1363 m 128
 125 1459 135 1500 212 1500 c 0
 269 1500 298 1459 298 1378 c 128
 298 1297 288 1208 267 1112 c 128
 246 1016 235 960 232 946 c 128
 229 932 224 925 216 925 c 128
 196 925 198 934 192 955 c 128
 188 968 176 1025 156 1124 c 128
 136 1223 125 1302 125 1363 c 128
511 942 m 128
 511 929 510 925 496 925 c 128
 488 925 484 927 482 930 c 128
 480 933 466 983 442 1080 c 128
 418 1177 406 1258 406 1323 c 128
 406 1388 408 1428 413 1444 c 0
 424 1481 447 1500 483 1500 c 128
 576 1500 580 1461 580 1346 c 128
 580 1275 568 1191 545 1093 c 0
 522 997 511 947 511 942 c 128
EndSplineSet
EndChar

StartChar: numbersign
Encoding: 35 35 7
Width: 1415
GlyphClass: 2
Flags: HMW
LayerCount: 2
Fore
SplineSet
1265 419 m 1
 981 419 l 1
 899 0 l 1
 727 0 l 1
 809 419 l 1
 482 419 l 1
 398 0 l 1
 225 0 l 1
 306 419 l 1
 26 419 l 1
 58 568 l 1
 336 568 l 1
 415 972 l 1
 140 972 l 1
 172 1135 l 1
 449 1135 l 1
 523 1499 l 1
 702 1499 l 1
 628 1135 l 1
 948 1135 l 1
 1020 1499 l 1
 1193 1499 l 1
 1121 1135 l 1
 1399 1135 l 1
 1372 972 l 1
 1088 972 l 1
 1010 568 l 1
 1293 568 l 1
 1265 419 l 1
514 568 m 1
 837 568 l 1
 916 972 l 1
 595 972 l 1
 514 568 l 1
EndSplineSet
EndChar

StartChar: dollar
Encoding: 36 36 8
Width: 1161
GlyphClass: 2
Flags: HMW
LayerCount: 2
Fore
SplineSet
548 1632 m 1
 622 1632 l 1
 622 -115 l 1
 548 -115 l 1
 548 1632 l 1
592 173 m 0
 805 173 882 227 882 416 c 128
 882 545 874 600 804 649 c 128
 773 671 699 685 584 691 c 128
 469 697 391 705 350 716 c 0
 187 759 106 882 106 1083 c 0
 106 1262 143 1376 216 1427 c 128
 289 1478 393 1503 528 1503 c 128
 663 1503 764 1494 830 1477 c 0
 972 1438 1043 1314 1043 1106 c 1
 857 1106 l 1
 856 1211 829 1279 777 1308 c 0
 740 1329 667 1340 560 1340 c 128
 453 1340 382 1327 350 1302 c 128
 318 1277 302 1214 302 1111 c 128
 302 1008 319 943 352 916 c 128
 385 889 459 870 574 862 c 128
 689 854 779 841 845 823 c 0
 993 783 1067 653 1067 434 c 0
 1067 253 1019 132 924 70 c 1
 867 35 808 15 744 10 c 128
 680 5 619 3 561 3 c 0
 232 3 89 96 89 419 c 2
 89 436 l 1
 275 436 l 1
 274 430 274 424 274 418 c 2
 274 402 l 2
 274 268 328 195 437 182 c 0
 495 176 547 173 592 173 c 0
EndSplineSet
EndChar

StartChar: percent
Encoding: 37 37 9
Width: 2252
GlyphClass: 2
Flags: HMW
LayerCount: 2
Fore
SplineSet
1435 754.5 m 2
 1435 1001.26074219 1516.31516542 1045.5 1781 1045.5 c 128
 2044.53382483 1045.5 2132 1000.09472656 2132 754.5 c 2
 2132 490.5 l 2
 2132 243.244832748 2047.05220324 198.5 1782 198.5 c 128
 1516.27149756 198.5 1435 242.654945046 1435 490.5 c 2
 1435 754.5 l 2
1782 922.5 m 0
 1589.19901649 922.5 1582 934.529296875 1582 756.5 c 2
 1582 477.5 l 2
 1582 306.566249072 1597.78182978 322.5 1782 322.5 c 256
 1969.52372509 322.5 1982 309.218966904 1982 477.5 c 2
 1982 756.5 l 2
 1982 935.975585938 1971.20655613 922.5 1782 922.5 c 0
113 1129 m 2
 113 1375.76074219 194.315165423 1420 459 1420 c 128
 722.533824828 1420 810 1374.59472656 810 1129 c 2
 810 865 l 2
 810 617.744832748 725.052203236 573 460 573 c 128
 194.271497565 573 113 617.154945046 113 865 c 2
 113 1129 l 2
460 1297 m 0
 267.199016492 1297 260 1309.02929688 260 1131 c 2
 260 852 l 2
 260 681.066249072 275.781829777 697 460 697 c 256
 647.523725093 697 660 683.718966904 660 852 c 2
 660 1131 l 2
 660 1310.47558594 649.20655613 1297 460 1297 c 0
1354 1596 m 5
 1055 1 l 5
 894 1 l 5
 1189 1596 l 5
 1354 1596 l 5
EndSplineSet
EndChar

StartChar: ampersand
Encoding: 38 38 10
Width: 1385
GlyphClass: 2
Flags: HMW
LayerCount: 2
Fore
SplineSet
310 831 m 1
 211 845 161 966 161 1193 c 0
 161 1525.63671875 347.536132812 1533 683 1533 c 128
 1005 1533 1189 1523.29980469 1189 1312 c 128
 1189 1269 1186 1228 1181 1189 c 1
 1021 1189 l 1
 1021 1368.29980469 1005 1375 701 1375 c 128
 439 1375 357 1344.29980469 357 1268.29980469 c 130
 357 1046.29980469 l 130
 357 929.733398438 372.288085938 890 463 890 c 2
 1021 890 l 1
 1021 1014.29980469 l 1
 1191 1014.29980469 l 1
 1191 891 l 1
 1331 891 l 1
 1331 752 l 1
 1191 752 l 1
 1190.10253906 354.299804688 l 2
 1184.390625 43.8828125 1189.93945312 -24 683 -24 c 128
 275.852539062 -24 111 -9.232421875 111 408 c 0
 111 585 144 709 210 778 c 0
 239 809 273 827 310 831 c 1
1021 228.299804688 m 2
 1021 752 l 1
 460 752 l 2
 323.665039062 752 305.813476562 657.9453125 306.11328125 482.299804688 c 2
 307.703125 254.299804688 l 2
 308.373046875 158.24609375 377.84375 132 682 132 c 128
 946.592773438 132 1021 160.981445312 1021 228.299804688 c 2
EndSplineSet
EndChar

StartChar: quotesingle
Encoding: 39 39 11
Width: 414
GlyphClass: 2
Flags: HMW
LayerCount: 2
Fore
SplineSet
125 1363 m 128
 125 1459 135 1500 212 1500 c 0
 269 1500 298 1459 298 1378 c 128
 298 1297 288 1208 267 1112 c 128
 246 1016 235 960 232 946 c 128
 229 932 224 925 216 925 c 128
 196 925 198 934 192 955 c 128
 188 968 176 1025 156 1124 c 128
 136 1223 125 1302 125 1363 c 128
EndSplineSet
EndChar

StartChar: parenleft
Encoding: 40 40 12
Width: 641
GlyphClass: 2
Flags: HMW
LayerCount: 2
Fore
SplineSet
119 816 m 0
 119 886 126 970 140 1068 c 0
 177 1325 252 1512 364 1627 c 0
 425 1690 499 1722 587 1722 c 2
 673 1722 l 1
 673 1577 l 1
 612 1577 l 2
 536 1577 472 1523 421 1416 c 0
 344 1255 305 1031 305 745 c 0
 305 683 314 592 333 473 c 128
 352 354 385 248 430 156 c 128
 475 64 536 19 612 19 c 2
 673 19 l 1
 673 -125 l 1
 587 -125 l 2
 473 -125 377 -69 300 42 c 0
 179 217 119 475 119 816 c 0
EndSplineSet
EndChar

StartChar: parenright
Encoding: 41 41 13
Width: 636
GlyphClass: 2
Flags: HMW
LayerCount: 2
Fore
SplineSet
-31 -125 m 1
 -31 19 l 1
 31 19 l 2
 168 19 262 181 313 504 c 0
 329 603 337 696 337 785 c 128
 337 874 328 980 309 1104 c 128
 290 1228 258 1337 212 1433 c 128
 166 1529 106 1577 31 1577 c 2
 -31 1577 l 1
 -31 1722 l 1
 55 1722 l 2
 218 1722 342 1606 429 1374 c 0
 492 1203 524 1011 524 797 c 128
 524 583 492 389 429 214 c 0
 346 -12 222 -125 55 -125 c 2
 -31 -125 l 1
EndSplineSet
EndChar

StartChar: asterisk
Encoding: 42 42 14
Width: 1014
GlyphClass: 2
Flags: HMW
LayerCount: 2
Fore
SplineSet
334 574 m 0
 298 574 255 612 255 648 c 128
 255 695 280 733 302 766 c 128
 358 850 436 924 501 997 c 1
 477 990 428 975 352 951 c 128
 276 927 215 915 168 915 c 0
 101 915 67 946 67 1006 c 128
 67 1066 100 1096 166 1096 c 0
 213 1096 274 1084 350 1059 c 128
 426 1034 476 1019 501 1012 c 1
 337 1191 255 1299 255 1334 c 128
 255 1391 283 1436 332 1436 c 128
 379 1436 407 1390 424 1353 c 128
 469 1259 488 1132 517 1022 c 1
 534 1086 540 1127 560 1209 c 128
 576 1278 621 1436 696 1436 c 128
 734 1436 776 1403 776 1353 c 128
 776 1314 749 1274 729 1244 c 128
 674 1160 599 1084 534 1012 c 1
 557 1019 608 1034 684 1059 c 128
 760 1084 820 1096 865 1096 c 0
 931 1096 964 1066 964 1006 c 128
 964 946 930 915 861 915 c 0
 812 915 751 927 678 951 c 128
 605 975 557 990 534 997 c 1
 695 818 776 710 776 674 c 128
 776 617 747 574 698 574 c 128
 654 574 627 621 610 657 c 128
 565 752 546 878 517 988 c 1
 513 970 508 947 502 920 c 0
 456 689 400 574 334 574 c 0
EndSplineSet
EndChar

StartChar: plus
Encoding: 43 43 15
Width: 889
GlyphClass: 2
Flags: HMW
LayerCount: 2
Fore
SplineSet
531 1117 m 1
 531 754 l 1
 839 754 l 1
 839 585 l 1
 531 585 l 1
 531 223 l 1
 365 223 l 1
 365 585 l 1
 58 585 l 1
 58 754 l 1
 365 754 l 1
 365 1117 l 1
 531 1117 l 1
EndSplineSet
EndChar

StartChar: comma
Encoding: 44 44 16
Width: 515
GlyphClass: 2
Flags: HMW
LayerCount: 2
Fore
SplineSet
270 309 m 128
 362 309 411 223 411 130 c 128
 411 -25 342 -139 246 -200 c 128
 213 -221 183 -231 155 -231 c 128
 127 -231 107 -230 95 -227 c 1
 95 -159 l 1
 132 -159 170 -145 209 -118 c 128
 248 -91 267 -59 267 -20 c 2
 267 0 l 1
 184 0 123 68 123 154 c 128
 123 244 180 309 270 309 c 128
EndSplineSet
EndChar

StartChar: hyphen
Encoding: 45 45 17
Width: 847
GlyphClass: 2
Flags: HMW
LayerCount: 2
Fore
SplineSet
719 538 m 5
 132 538 l 5
 132 677 l 5
 719 677 l 5
 719 538 l 5
EndSplineSet
EndChar

StartChar: period
Encoding: 46 46 18
Width: 500
GlyphClass: 2
Flags: HMW
LayerCount: 2
Fore
SplineSet
252 -37 m 0
 168 -37 111 31 111 117 c 0
 111 202 160 271 252 271 c 0
 335 271 392 203 392 117 c 0
 392 34 344 -37 252 -37 c 0
EndSplineSet
EndChar

StartChar: slash
Encoding: 47 47 19
Width: 581
GlyphClass: 2
Flags: HMW
LayerCount: 2
Fore
SplineSet
531 1499 m 1
 210 0 l 1
 37 0 l 1
 358 1499 l 1
 531 1499 l 1
EndSplineSet
EndChar

StartChar: zero
Encoding: 48 48 20
Width: 1244
GlyphClass: 2
Flags: HW
LayerCount: 2
Fore
SplineSet
133 975.299804688 m 6
 133 1372.15234375 224.553710938 1514 624 1514 c 0
 1022.49511719 1514 1115 1371.2421875 1115 975.299804688 c 2
 1115 519.299804688 l 2
 1115 132.00390625 1037.47558594 -15 624 -15 c 0
 211.474609375 -15 133 132.860351562 133 519.299804688 c 6
 133 975.299804688 l 6
620.084960938 130 m 0
 847.440429688 130 936 182.293945312 936 295.299804688 c 2
 936 1193.29980469 l 2
 936 1328.08789062 827.633789062 1375 593.655273438 1375 c 0
 392.291992188 1375 307 1316.78027344 307 1200.59960938 c 6
 307 295.599609375 l 6
 307 181.135742188 370.251953125 130 620.084960938 130 c 0
EndSplineSet
EndChar

StartChar: one
Encoding: 49 49 21
Width: 565
GlyphClass: 2
Flags: HW
LayerCount: 2
Back
SplineSet
422 128 m 5
 221 128 l 5
 221 1627 l 5
 422 1627 l 5
 422 128 l 5
EndSplineSet
Fore
SplineSet
219 0 m 5
 219 1278.53515625 l 1
 46 1268.53515625 l 1
 46 1351.03417969 l 1
 141.265625 1353.91308594 209.936523438 1403.58398438 249.818359375 1490 c 1
 402 1490 l 1
 402 0 l 5
 219 0 l 5
EndSplineSet
EndChar

StartChar: two
Encoding: 50 50 22
Width: 1061
GlyphClass: 2
Flags: HW
LayerCount: 2
Fore
SplineSet
535.580078125 1389.29980469 m 0
 323.065429688 1389.29980469 258.481445312 1378.99609375 248.576171875 1187.40429688 c 1
 254.018554688 1129.93261719 l 1
 104.88671875 1143.328125 l 1
 99.908203125 1177.7265625 95.052734375 1212.21386719 95.052734375 1243.41601562 c 0
 95.052734375 1457.17773438 269.3046875 1515 517.170898438 1515 c 0
 826.0703125 1515 953.146484375 1469.07324219 952.015625 1149.6328125 c 2
 951.633789062 1047.63378906 l 2
 949.551757812 503.078125 259.73828125 574.458007812 259.73828125 200.118164062 c 1
 260.041015625 134.599609375 l 1
 928 134.599609375 l 1
 928 10 l 1
 93 10 l 1
 93 167.599609375 l 2
 93 679.685546875 783 593.931640625 783 1039.59960938 c 2
 783 1175.59960938 l 2
 783 1359.47265625 747.969726562 1389.29980469 535.580078125 1389.29980469 c 0
EndSplineSet
EndChar

StartChar: three
Encoding: 51 51 23
Width: 1102
GlyphClass: 2
Flags: HW
LayerCount: 2
Fore
SplineSet
764.78515625 771.8671875 m 1
 787.467773438 771.15234375 984.356445312 775.59765625 984.356445312 1145.29980469 c 0
 984.356445312 1404.23535156 862.208007812 1514.29980469 544.435546875 1514.29980469 c 0
 186.7109375 1514.29980469 86.935546875 1446.09277344 86.935546875 1281.04296875 c 0
 86.935546875 1238.96191406 90.7353515625 1199.99121094 93.771484375 1158.52636719 c 1
 248.020507812 1149.55761719 l 1
 244.018554688 1265.16796875 l 1
 244.5546875 1364.68164062 313.661132812 1389.29980469 531.310546875 1389.29980469 c 0
 738.921875 1389.29980469 805.055664062 1367.34667969 805.426757812 1253.32910156 c 2
 806.356445312 967.329101562 l 1
 807.9296875 843.415039062 663.452148438 837.662109375 508.6328125 837.662109375 c 0
 478.615234375 837.662109375 449.892578125 837.936523438 416.280273438 837.991210938 c 1
 424.821289062 707.999023438 l 1
 709.86328125 707.923828125 807.577148438 702.91796875 806.356445312 507.244140625 c 2
 805.6328125 253.2734375 l 2
 805.27734375 128.6640625 738.208007812 110 517.6953125 110 c 0
 327.09375 110 241.052734375 133.014648438 242.131835938 239.390625 c 2
 243.262695312 350.791992188 l 1
 83.6162109375 347.184570312 l 1
 80.3837890625 311.434570312 75 264.264648438 75 223.334960938 c 0
 75 29.0703125 232.711914062 -15 490.467773438 -15 c 0
 814.880859375 -15 984.356445312 43.82421875 984.356445312 360 c 0
 984.356445312 745.440429688 787.467773438 770.284179688 764.78515625 771.8671875 c 1
EndSplineSet
EndChar

StartChar: four
Encoding: 52 52 24
Width: 1009
GlyphClass: 2
Flags: HW
LayerCount: 2
Back
SplineSet
872.5 128 m 5
 671.5 128 l 5
 671.5 1627 l 5
 872.5 1627 l 5
 872.5 128 l 5
EndSplineSet
Fore
SplineSet
815 401 m 1
 815 0 l 5
 633.89453125 0 l 5
 633.89453125 401 l 1
 39 401 l 1
 39 541.83203125 l 1
 519.017578125 1490 l 1
 815 1490 l 1
 815 523 l 1
 946 523 l 1
 946 401 l 1
 815 401 l 1
633.89453125 523 m 1
 633.89453125 1410.17089844 l 1
 222.802734375 523 l 1
 633.89453125 523 l 1
EndSplineSet
EndChar

StartChar: five
Encoding: 53 53 25
Width: 1179
GlyphClass: 2
Flags: HW
LayerCount: 2
Fore
SplineSet
143.038085938 378.4609375 m 1
 311.267578125 387.504882812 l 1
 311.688476562 299.256835938 l 0
 312.41796875 146.021484375 350.825195312 124 578.993164062 124 c 0
 805.010742188 124 900.284179688 149.288085938 900.22265625 277.303710938 c 0
 900.03515625 663.255859375 l 0
 900.666992188 791.1484375 829.278320312 811 598.46875 811 c 0
 424.470703125 811 342.109375 800.38671875 323.193359375 650 c 1
 151.22265625 650 l 1
 151.22265625 1492 l 1
 994.654296875 1492 l 1
 985.7578125 1347 l 1
 348.689453125 1347 l 1
 316.478515625 743.03515625 l 1
 337.801757812 810.279296875 l 0
 363.967773438 892.793945312 462.458007812 953 642.288085938 953 c 0
 1028.12304688 953 1073.22265625 815.783203125 1073.22265625 456 c 0
 1073.22265625 50.76953125 968.747070312 -15 578.020507812 -15 c 0
 565.104492188 -15 552.514648438 -14.8681640625 540.245117188 -14.5986328125 c 0
 247.611328125 -8.2373046875 136.3359375 72.1943359375 142.220703125 341.103515625 c 0
 143.038085938 378.4609375 l 1
EndSplineSet
EndChar

StartChar: six
Encoding: 54 54 26
Width: 1235
GlyphClass: 2
Flags: HW
LayerCount: 2
Back
SplineSet
355 128 m 5
 158.3359375 128 l 1
 154 1627 l 5
 355 1627 l 5
 355 128 l 5
EndSplineSet
Fore
SplineSet
318 1221 m 0
 318 781 l 1
 360 873 439.344726562 955 644.338867188 955 c 0
 1023.58398438 955 1125 897.0546875 1125 493 c 0
 1125 79.3837890625 1055.99804688 -15 669.767578125 -15 c 0
 272.924804688 -15 138 48.7587890625 138 459 c 0
 138 1101 l 0
 138 1412.32910156 255.711914062 1514 615.975585938 1514 c 0
 900.233398438 1514 1070 1475.18261719 1070 1270 c 0
 1070 1232.68847656 1063.72753906 1192.97753906 1059.83398438 1159.07617188 c 1
 911.908203125 1141.14550781 l 1
 911 1241.00683594 l 1
 912.05859375 1380.62207031 842.30078125 1389 633.580078125 1389 c 0
 378.649414062 1389 318 1358.04492188 318 1221 c 0
636.514648438 810 m 0
 399.900390625 810 318 770.8515625 318 643 c 2
 318 290 l 0
 318 151.556640625 372.133789062 110 638.469726562 110 c 0
 919.180664062 110 950 150.11328125 950 273.9765625 c 0
 951 657 l 0
 951 777.80078125 883.095703125 810 636.514648438 810 c 0
EndSplineSet
EndChar

StartChar: seven
Encoding: 55 55 27
Width: 785
GlyphClass: 2
Flags: HW
LayerCount: 2
Fore
SplineSet
289 0 m 5
 111.48828125 0 l 5
 575.661132812 1348 l 1
 30 1348 l 1
 30 1490 l 1
 731 1490 l 1
 731 1328.47070312 l 1
 289 0 l 5
EndSplineSet
EndChar

StartChar: eight
Encoding: 56 56 28
Width: 1198
GlyphClass: 2
Flags: HW
LayerCount: 2
Fore
SplineSet
99 390.150390625 m 1
 99 596.11328125 154.506835938 717.8046875 289.208984375 801.47265625 c 1
 211.950195312 856.72265625 172 958.61328125 172 1147.29980469 c 0
 172 1439.85253906 296.141601562 1514 601.977539062 1514 c 0
 907.696289062 1514 1028 1437.19726562 1028 1145.29980469 c 0
 1028 956.762695312 995.454101562 855.345703125 932.659179688 801.567382812 c 1
 1039.54785156 720.663085938 1103 618.155273438 1103 377.299804688 c 0
 1103 28.9423828125 951.859375 -15 590.249023438 -15 c 0
 217.350585938 -15 111.032226562 30.8779296875 99 390.150390625 c 1
540.40234375 722 m 2
 453.486328125 722 384.817382812 715.625976562 332.440429688 702.119140625 c 1
 291.901367188 662.711914062 273 585.734375 273 466 c 2
 273 261.299804688 l 2
 273 152.850585938 305.805664062 119 595.135742188 119 c 0
 863.286132812 119 930.227539062 145.248046875 930.149414062 261.305664062 c 2
 930 483.299804688 l 2
 930 571.375976562 917.614257812 682.748046875 883.389648438 706.608398438 c 1
 812.703125 716.665039062 742.833984375 722 674.302734375 722 c 2
 540.40234375 722 l 2
825.412109375 854 m 1
 854.08203125 893.872070312 865.657226562 962.404296875 866.036132812 1071.96875 c 2
 866.733398438 1273.43261719 l 2
 867.041992188 1362.61035156 828.140625 1375 601 1375 c 0
 374.91015625 1375 334.532226562 1363.05078125 334.360351562 1273.47851562 c 2
 334.974609375 1071.01757812 l 2
 335.309570312 960.473632812 346.91796875 892.848632812 375.688476562 854 c 1
 825.412109375 854 l 1
EndSplineSet
EndChar

StartChar: nine
Encoding: 57 57 29
Width: 1240
GlyphClass: 2
Flags: HW
LayerCount: 2
Fore
SplineSet
927 278 m 2
 927 731 l 1
 889 653 804.427734375 557 599.315429688 557 c 0
 220.254882812 557 119 613.370117188 119 1006 c 0
 119 1419.6171875 188.002929688 1514 573.922851562 1514 c 0
 971.076171875 1514 1106 1450.24121094 1106 1040 c 2
 1106 422 l 2
 1106 91.802734375 997.432617188 -15 663.772460938 -15 c 0
 358.3359375 -15 174 24.2626953125 174 229 c 0
 174 266.311523438 180.272460938 306.022460938 184.166015625 339.923828125 c 1
 332.091796875 357.854492188 l 1
 333 257.993164062 l 1
 331.94140625 118.379882812 401.640625 110 610.05859375 110 c 0
 865.471679688 110 927 140.927734375 927 278 c 2
607.12890625 702 m 0
 844.85546875 702 928 741.096679688 928 869.022460938 c 2
 927 1209.02636719 l 2
 926.592773438 1347.45410156 872.1640625 1389 605.17578125 1389 c 0
 324.802734375 1389 294.334960938 1348.890625 294 1225.02441406 c 2
 293 855 l 2
 293 734.201171875 360.90234375 702 607.12890625 702 c 0
EndSplineSet
EndChar

StartChar: colon
Encoding: 58 58 30
Width: 537
GlyphClass: 2
Flags: HMW
LayerCount: 2
Fore
SplineSet
273 925 m 0
 193 925 133 983 133 1079 c 0
 133 1173 183 1233 287 1233 c 128
 358 1233 413 1157 413 1079 c 0
 413 996 365 925 273 925 c 0
413 288 m 0
 413 205.178710938 363.811523438 134 273 134 c 0
 193 134 133 192 133 288 c 0
 133 382 185 442 287 442 c 128
 358 442 413 366 413 288 c 0
EndSplineSet
EndChar

StartChar: semicolon
Encoding: 59 59 31
Width: 547
GlyphClass: 2
Flags: HMW
LayerCount: 2
Fore
SplineSet
285 439 m 128
 376 439 427 353 427 260 c 128
 427 106 357 -10 261 -70 c 128
 227 -91 197 -101 170 -101 c 128
 143 -101 123 -100 111 -97 c 1
 111 -29 l 1
 148 -29 186 -15 225 12 c 128
 264 39 283 71 283 110 c 2
 283 130 l 1
 199 130 138 199 138 285 c 128
 138 374 196 439 285 439 c 128
283 925 m 0
 200 925 143 994 143 1079 c 0
 143 1163 191 1233 283 1233 c 0
 366 1233 423 1165 423 1079 c 0
 423 996 375 925 283 925 c 0
EndSplineSet
EndChar

StartChar: less
Encoding: 60 60 32
Width: 878
GlyphClass: 2
Flags: HMW
LayerCount: 2
Fore
SplineSet
56 838 m 1
 769 1276 l 1
 769 1045 l 1
 230 766 l 1
 769 478 l 1
 769 257 l 1
 56 676 l 1
 56 838 l 1
EndSplineSet
EndChar

StartChar: equal
Encoding: 61 61 33
Width: 1125
GlyphClass: 2
Flags: HMW
LayerCount: 2
Fore
SplineSet
977 854 m 1
 977 668 l 1
 151 668 l 1
 151 854 l 1
 977 854 l 1
977 305 m 1
 151 305 l 1
 151 491 l 1
 977 491 l 1
 977 305 l 1
EndSplineSet
EndChar

StartChar: greater
Encoding: 62 62 34
Width: 883
GlyphClass: 2
Flags: HMW
LayerCount: 2
Fore
SplineSet
834 838 m 1
 834 676 l 1
 119 257 l 1
 119 478 l 1
 659 766 l 1
 119 1045 l 1
 119 1276 l 1
 834 838 l 1
EndSplineSet
EndChar

StartChar: question
Encoding: 63 63 35
Width: 696
GlyphClass: 2
Flags: HMW
LayerCount: 2
Fore
SplineSet
265 1534 m 0
 508 1534 629 1414 629 1175 c 0
 629 1059 578 941 475 822 c 1
 367 698.8828125 308 590.5390625 297 495 c 1
 215 495 l 1
 215 630 245 747 305 845 c 128
 391.418945312 986.151367188 436 1024.16796875 436 1163 c 0
 436 1288 374 1350 250 1350 c 0
 211.081054688 1350 150.633789062 1342.66699219 67 1328 c 5
 65 1493 l 5
 145 1520.55761719 211.922851562 1534 265 1534 c 0
149 0 m 1
 149 228 l 1
 346 228 l 1
 347 0 l 1
 149 0 l 1
EndSplineSet
EndChar

StartChar: at
Encoding: 64 64 36
Width: 1968
GlyphClass: 2
Flags: HMW
LayerCount: 2
Fore
SplineSet
614 1014 m 0
 614 1239 790 1266 1048 1266 c 0
 1307 1266 1436 1159 1436 944 c 2
 1436 215 l 1
 1621 215 1651 231 1668 380 c 128
 1673 425 1675 521 1675 670 c 128
 1675 1253 1585 1472 1019 1472 c 128
 460 1472 297 1221 297 659 c 128
 297 104 415 -184 942 -184 c 0
 1139 -184 1372 -132 1571 -77 c 1
 1619 -224 l 1
 1436 -304 1234 -344 1014 -344 c 128
 350 -344 107 -94 107 627 c 0
 107 1320 348 1635 1000 1635 c 0
 1700 1635 1863 1367 1863 662 c 128
 1863 241 1827 87 1476 87 c 0
 1374 87 1319 129 1310 212 c 1
 1287 111 1148 61 893 61 c 0
 632 61 551 141 551 410 c 128
 551 659 628 772 858 772 c 128
 960 772 1086 759 1239 732 c 1
 1239 959 l 2
 1239 1133 1167 1103 1006 1103 c 128
 868 1103 785 1127 785 992 c 128
 785 963 786 934 789 903 c 1
 626 903 l 1
 618 943 614 967 614 1014 c 0
934 204 m 128
 1073 204 1239 169 1239 311 c 2
 1239 624 l 1
 930 624 l 2
 745 624 733 613 733 438 c 128
 733 243 736 204 934 204 c 128
EndSplineSet
EndChar

StartChar: A
Encoding: 65 65 37
Width: 1269
GlyphClass: 2
Flags: HMW
LayerCount: 2
Fore
SplineSet
892 388 m 1
 345 388 l 1
 237 0 l 1
 47 0 l 1
 494 1499 l 1
 772 1499 l 1
 1206 0 l 1
 1003 0 l 1
 892 388 l 1
384 524 m 1
 854 524 l 1
 623 1363 l 1
 384 524 l 1
EndSplineSet
EndChar

StartChar: B
Encoding: 66 66 38
Width: 1350
GlyphClass: 2
Flags: HMW
LayerCount: 2
Back
SplineSet
1224.5 0 m 5
 1023.5 0 l 5
 1023.5 1499 l 5
 1224.5 1499 l 5
 1224.5 0 l 5
EndSplineSet
Fore
SplineSet
731 1499 m 2
 1015.34960938 1499 1169.99511719 1459 1168 1210 c 2
 1168 1048 l 2
 1168 862.989257812 1102 828 948 808 c 1
 1101.57714844 795 1214 708 1214 576 c 2
 1214 312 l 2
 1214 40 1092 0 829 0 c 2
 168 0 l 1
 168 1499 l 1
 731 1499 l 2
704 143 m 2
 939 143 1016 177 1016 240 c 2
 1016 590 l 2
 1016 706 930 739 690 739 c 2
 369 739 l 1
 369 143 l 1
 704 143 l 2
970 1264 m 2
 970 1344 901.72265625 1355 724 1355 c 2
 369 1355 l 1
 369 859 l 1
 673 859 l 2
 876 859 970 896 970 962 c 2
 970 1264 l 2
EndSplineSet
EndChar

StartChar: C
Encoding: 67 67 39
Width: 1363
GlyphClass: 2
Flags: HMW
LayerCount: 2
Back
SplineSet
349 0 m 5
 148 0 l 5
 148 1499 l 5
 349 1499 l 5
 349 0 l 5
EndSplineSet
Fore
SplineSet
143 1040.5 m 2
 143 1433.94433594 228 1524 647 1524 c 128
 1085.01269531 1524 1208.82714844 1486.95605469 1225 1060 c 1
 1052 1040 l 1
 1042 1176.29980469 l 2
 1025.90234375 1395.70996094 945.001953125 1380.29980469 662 1380.29980469 c 0
 423.250976562 1380.29980469 344 1362.29980469 344 1230.29980469 c 6
 344 272.5 l 6
 344 169.129882812 396.857421875 119 716 119 c 0
 964 119 1033.43945312 113.217773438 1042 281 c 2
 1052 477 l 1
 1225 467 l 1
 1219.19628906 60.75 1132.03125 -24 750 -24 c 0
 232 -24 143 56.2626953125 143 491.5 c 2
 143 1040.5 l 2
EndSplineSet
EndChar

StartChar: D
Encoding: 68 68 40
Width: 1425
GlyphClass: 2
Flags: HMW
LayerCount: 2
Back
SplineSet
1288 128 m 5
 1087 128 l 5
 1087 1627 l 5
 1288 1627 l 5
 1288 128 l 5
EndSplineSet
Fore
SplineSet
871 143 m 134
 1051 143 1077 205 1077 361 c 134
 1077 1168.29980469 l 134
 1077 1290.29980469 1063 1355.29980469 801 1355.29980469 c 134
 369 1355.29980469 l 5
 369 143 l 5
 871 143 l 134
705 1499 m 6
 1209 1499 1278 1399 1278 903 c 6
 1278 594 l 6
 1278 97 1192 0 705 0 c 6
 168 0 l 5
 168 1499 l 5
 705 1499 l 6
EndSplineSet
EndChar

StartChar: E
Encoding: 69 69 41
Width: 1129
GlyphClass: 2
Flags: HMW
LayerCount: 2
Back
SplineSet
379 0 m 1
 178 0 l 1
 178 1499 l 1
 379 1499 l 1
 379 0 l 1
EndSplineSet
Fore
SplineSet
369 701 m 1
 369 143 l 1
 1027 143 l 1
 1017 0 l 1
 168 0 l 1
 168 1499 l 1
 1002 1499 l 1
 1012 1355.29980469 l 1
 369 1355.29980469 l 1
 369 855 l 1
 951 855 l 1
 951 701 l 1
 369 701 l 1
EndSplineSet
EndChar

StartChar: F
Encoding: 70 70 42
Width: 1027
GlyphClass: 2
Flags: HMW
LayerCount: 2
Back
SplineSet
379 0 m 5
 178 0 l 5
 178 1499 l 5
 379 1499 l 5
 379 0 l 5
EndSplineSet
Fore
SplineSet
369 696 m 1
 369 0 l 1
 168 0 l 1
 168 1499 l 1
 959 1499 l 1
 969 1355.29980469 l 1
 369 1355.29980469 l 1
 369 850 l 1
 912 850 l 1
 912 696 l 1
 369 696 l 1
EndSplineSet
EndChar

StartChar: G
Encoding: 71 71 43
Width: 1387
GlyphClass: 2
Flags: HMW
LayerCount: 2
Back
SplineSet
1244.5 0 m 5
 1043.5 0 l 5
 1043.5 1499 l 5
 1244.5 1499 l 5
 1244.5 0 l 5
EndSplineSet
Fore
SplineSet
711 -24 m 128
 198 -24 137 68 137 594 c 2
 137 903 l 2
 137 1366.74707031 196 1524 635 1524 c 128
 993.299804688 1524 1224 1516.97851562 1224 1198 c 128
 1224 1157 1220 1118 1212 1080 c 1
 1034 1060 l 1
 1034 1150.11621094 1035 1274.29980469 1035 1274.29980469 c 2
 1038.10253906 1373.29980469 936.743164062 1380.29980469 673 1380.29980469 c 0
 391.838867188 1380.29980469 338 1346.29980469 338 1218.29980469 c 6
 338 345 l 6
 338 141 337.002929688 117 715 119 c 0
 877.796875 119.930664062 1032.29882812 129.241210938 1052 146 c 1
 1052 606 l 1
 797 606 l 1
 777 748 l 1
 1233 748 l 1
 1233 53 l 1
 1137.81152344 2 963.811523438 -24 711 -24 c 128
EndSplineSet
EndChar

StartChar: H
Encoding: 72 72 44
Width: 1406
GlyphClass: 2
Flags: HMW
LayerCount: 2
Back
SplineSet
1248.5 0 m 1
 1047.5 0 l 1
 1047.5 1499 l 1
 1248.5 1499 l 1
 1248.5 0 l 1
EndSplineSet
Fore
SplineSet
369 691 m 1
 369 0 l 1
 168 0 l 1
 168 1499 l 1
 369 1499 l 1
 369 840 l 1
 1037 840 l 1
 1037 1499 l 1
 1238 1499 l 1
 1238 0 l 1
 1037 0 l 1
 1037 691 l 1
 369 691 l 1
EndSplineSet
EndChar

StartChar: I
Encoding: 73 73 45
Width: 537
GlyphClass: 2
Flags: HMW
LayerCount: 2
Fore
SplineSet
369 0 m 5
 168 0 l 5
 168 1499 l 5
 369 1499 l 5
 369 0 l 5
EndSplineSet
EndChar

StartChar: J
Encoding: 74 74 46
Width: 640
GlyphClass: 2
Flags: HMW
LayerCount: 2
Back
SplineSet
491 0 m 5
 290 0 l 5
 290 1499 l 5
 491 1499 l 5
 491 0 l 5
EndSplineSet
Fore
SplineSet
269 -24 m 0
 206 -24 138 -16 63 0 c 1
 63 143 l 1
 275 143 l 1
 275 1499 l 1
 476 1499 l 1
 476 177 l 2
 476 43 406.665039062 -24 269 -24 c 0
EndSplineSet
EndChar

StartChar: K
Encoding: 75 75 47
Width: 1222
GlyphClass: 2
Flags: HMW
LayerCount: 2
Back
SplineSet
380 0 m 5
 179 0 l 5
 179 1499 l 5
 380 1499 l 5
 380 0 l 5
EndSplineSet
Fore
SplineSet
369 0 m 1
 168 0 l 1
 168 500.69140625 168 999.48828125 168 1499 c 1
 369 1499 l 1
 369 821 l 1
 900 1499 l 1
 1141 1499 l 1
 576 815 l 1
 1203 0 l 1
 957 0 l 1
 416 732 l 1
 369 677 l 1
 369 0 l 1
EndSplineSet
EndChar

StartChar: L
Encoding: 76 76 48
Width: 992
GlyphClass: 2
Flags: HMW
LayerCount: 2
Back
SplineSet
379 0 m 5
 178 0 l 5
 178 1499 l 5
 379 1499 l 5
 379 0 l 5
EndSplineSet
Fore
SplineSet
168 0 m 1
 168 1499 l 1
 369 1499 l 1
 369 143 l 1
 930 143 l 1
 920 0 l 1
 168 0 l 1
EndSplineSet
EndChar

StartChar: M
Encoding: 77 77 49
Width: 1701
GlyphClass: 2
Flags: HMW
LayerCount: 2
Fore
SplineSet
354 1192 m 1
 300 0 l 1
 126 0 l 1
 215 1499 l 1
 424 1499 l 1
 850 326 l 1
 1262 1499 l 1
 1482 1499 l 1
 1571 0 l 1
 1373 0 l 1
 1311 1201 l 1
 907 0 l 1
 785 0 l 1
 354 1192 l 1
EndSplineSet
EndChar

StartChar: N
Encoding: 78 78 50
Width: 1437
GlyphClass: 2
Flags: HMW
LayerCount: 2
Fore
SplineSet
1096 1499 m 1
 1269 1499 l 5
 1269 0 l 5
 1057 0 l 1
 341 1194 l 1
 341 0 l 1
 168 0 l 1
 168 1499 l 1
 371 1499 l 1
 1096 287 l 1
 1096 1499 l 1
EndSplineSet
EndChar

StartChar: O
Encoding: 79 79 51
Width: 1436
GlyphClass: 2
Flags: HMW
LayerCount: 2
Back
SplineSet
1295 0 m 1
 1094 0 l 1
 1094 1499 l 1
 1295 1499 l 1
 1295 0 l 1
EndSplineSet
Fore
SplineSet
713 1380 m 0
 353 1380 340 1352 340 1135 c 2
 340 347 l 2
 340 140 363 119 715 119 c 0
 1051 119 1085 142 1085 327 c 2
 1085 1125 l 2
 1085 1351 1063 1380 713 1380 c 0
713 -24 m 0
 212.126953125 -24 139 78 139 547 c 6
 139 955 l 6
 139 1424 213.12890625 1524 713 1524 c 0
 1213 1524 1286 1410 1286 903 c 2
 1286 529 l 2
 1286 71 1213 -24 713 -24 c 0
EndSplineSet
EndChar

StartChar: P
Encoding: 80 80 52
Width: 1295
GlyphClass: 2
Flags: HMW
LayerCount: 2
Back
SplineSet
1175 0 m 5
 974 0 l 5
 974 1499 l 5
 1175 1499 l 5
 1175 0 l 5
EndSplineSet
Fore
SplineSet
698 1499 m 2
 1062 1499 1165 1439.21484375 1165 1007 c 128
 1165 594.419921875 1073 517 854 517 c 130
 369 517 l 1
 369 0 l 1
 168 0 l 1
 168 1499 l 1
 698 1499 l 2
740 661 m 2
 941 661 964 691.353515625 964 852 c 130
 964 1155.29980469 l 2
 963.684570312 1250.29980469 940.828125 1355.29980469 829 1355.29980469 c 130
 369 1355.29980469 l 1
 369 661 l 1
 740 661 l 2
EndSplineSet
EndChar

StartChar: Q
Encoding: 81 81 53
Width: 1436
GlyphClass: 2
Flags: HMW
LayerCount: 2
Fore
SplineSet
1231 -243 m 1
 1092 -358 l 1
 867 -21 l 1
 1048 38 l 1
 1231 -243 l 1
EndSplineSet
Refer: 51 79 N 1 0 0 1 0 0 2
EndChar

StartChar: R
Encoding: 82 82 54
Width: 1346
GlyphClass: 2
Flags: HMW
LayerCount: 2
Back
SplineSet
1202 0 m 5
 1001 0 l 5
 1001 1499 l 5
 1202 1499 l 5
 1202 0 l 5
EndSplineSet
Fore
SplineSet
736 1499 m 2
 1048 1499 1192 1431 1192 1092 c 128
 1192 805 1070 720 926 699 c 1
 1067 685 1148 606 1168 463 c 2
 1233 0 l 1
 1021 0 l 1
 975 402 l 2
 956 571 941 621 760 621 c 2
 369 621 l 1
 369 0 l 1
 168 0 l 1
 168 1499 l 1
 736 1499 l 2
991 926 m 130
 991 1217 l 2
 991 1332 942.163085938 1355 692 1355 c 2
 369 1355 l 1
 369 775 l 1
 706 775 l 2
 926 775 991 796 991 926 c 130
EndSplineSet
EndChar

StartChar: S
Encoding: 83 83 55
Width: 1292
GlyphClass: 2
Flags: HMW
LayerCount: 2
Fore
SplineSet
941 1133 m 1
 944.520507812 1205.94335938 946.5 1274.73339844 946.5 1286.74121094 c 0
 946.5 1344.1796875 885.318359375 1365.29980469 655.5 1365.29980469 c 0
 398.40625 1365.29980469 350 1338.28808594 350 1261.29980469 c 2
 350 1015 l 2
 350 965 358.08984375 929.627929688 430 919 c 2
 951 842 l 6
 1117.09179688 818.184570312 1158.02929688 672.447265625 1158.39257812 441.299804688 c 6
 1158.61328125 301.299804688 l 6
 1159.38725457 -4.185546875 1006.63883561 -24 640 -24 c 0
 227 -24 128 27.2998046875 128 286 c 0
 128 322 131 364 135 409 c 1
 325 419 l 1
 316 213.299804688 l 1
 310.943359375 164.079101562 393 128 642 128 c 0
 889.469879518 128 958 136.283203125 958 232 c 6
 958 498 l 6
 958 598 942.583007812 653.60546875 898 660 c 6
 412 732 l 1
 218.715820312 757.900390625 149.18359375 839.501953125 149.416015625 1073.29980469 c 2
 149.5 1187.29980469 l 2
 149.712890625 1476.52441406 304.122070312 1523.00097656 631.083007812 1523.00097656 c 2
 634 1523 l 2
 963 1522.70996094 1130 1501.29980469 1130 1231 c 0
 1130 1208 1127 1182 1123 1154 c 1
 941 1133 l 1
EndSplineSet
EndChar

StartChar: T
Encoding: 84 84 56
Width: 952
GlyphClass: 2
Flags: HMW
LayerCount: 2
Back
SplineSet
586 0 m 5
 385 0 l 5
 385 1499 l 5
 586 1499 l 5
 586 0 l 5
EndSplineSet
Fore
SplineSet
958 1499 m 1
 958 1355 l 1
 574 1355 l 1
 574 0 l 1
 373 0 l 1
 373 1355 l 1
 -2 1355 l 1
 -2 1499 l 1
 958 1499 l 1
EndSplineSet
EndChar

StartChar: U
Encoding: 85 85 57
Width: 1442
GlyphClass: 2
Flags: HMW
LayerCount: 2
Back
SplineSet
1295.5 128 m 1
 1094.5 128 l 1
 1094.5 1627 l 1
 1295.5 1627 l 1
 1295.5 128 l 1
EndSplineSet
Fore
SplineSet
719 119 m 256
 1035 119 1084 154 1084 348 c 2
 1084 1499 l 1
 1285 1499 l 1
 1285 550 l 2
 1285 81 1183 -24 719 -24 c 0
 246 -24 154 74 154 550 c 2
 154 1499 l 1
 355 1499 l 1
 355 354 l 2
 355 139 417 119 719 119 c 256
EndSplineSet
EndChar

StartChar: V
Encoding: 86 86 58
Width: 1191
GlyphClass: 2
Flags: HMW
LayerCount: 2
Fore
SplineSet
595 259 m 1
 965 1499 l 1
 1183 1499 l 1
 694 0 l 1
 486 0 l 1
 13 1499 l 1
 225 1499 l 1
 595 259 l 1
EndSplineSet
EndChar

StartChar: W
Encoding: 87 87 59
Width: 1751
GlyphClass: 2
Flags: HMW
LayerCount: 2
Fore
SplineSet
1284 269 m 1
 1520 1499 l 1
 1705 1499 l 1
 1381 0 l 1
 1164 0 l 1
 877 1183 l 1
 594 0 l 1
 377 0 l 1
 47 1499 l 1
 260 1499 l 1
 496 269 l 1
 784 1499 l 1
 987 1499 l 1
 1284 269 l 1
EndSplineSet
EndChar

StartChar: X
Encoding: 88 88 60
Width: 1184
GlyphClass: 2
Flags: HMW
LayerCount: 2
Fore
SplineSet
594 593 m 1
 270 0 l 1
 55 0 l 1
 481 770 l 1
 74 1499 l 1
 285 1499 l 1
 594 938 l 1
 904 1499 l 1
 1116 1499 l 1
 710 770 l 1
 1135 0 l 1
 919 0 l 1
 594 593 l 1
EndSplineSet
EndChar

StartChar: Y
Encoding: 89 89 61
Width: 1032
GlyphClass: 2
Flags: HMW
LayerCount: 2
Fore
SplineSet
610 0 m 1
 410 0 l 1
 410 510 l 1
 -15 1499 l 1
 200 1499 l 1
 518 723 l 1
 842 1499 l 1
 1050 1499 l 1
 610 510 l 1
 610 0 l 1
EndSplineSet
EndChar

StartChar: Z
Encoding: 90 90 62
Width: 1068
GlyphClass: 2
Flags: HMW
LayerCount: 2
Fore
SplineSet
95 0 m 1
 95 170 l 1
 766 1355.29980469 l 1
 164 1355.29980469 l 1
 144 1499 l 1
 952 1499 l 1
 962 1325 l 1
 306 143 l 1
 972 143 l 1
 962 0 l 1
 95 0 l 1
EndSplineSet
EndChar

StartChar: bracketleft
Encoding: 91 91 63
Width: 579
GlyphClass: 2
Flags: HMW
LayerCount: 2
Fore
SplineSet
169 -262 m 1
 169 1690 l 1
 614 1690 l 1
 614 1543 l 1
 359 1543 l 1
 359 -114 l 1
 614 -114 l 1
 614 -262 l 1
 169 -262 l 1
EndSplineSet
EndChar

StartChar: backslash
Encoding: 92 92 64
Width: 599
GlyphClass: 2
Flags: HMW
LayerCount: 2
Fore
SplineSet
359 0 m 1
 66 1499 l 1
 263 1499 l 1
 556 0 l 1
 359 0 l 1
EndSplineSet
EndChar

StartChar: bracketright
Encoding: 93 93 65
Width: 585
GlyphClass: 2
Flags: HMW
LayerCount: 2
Fore
SplineSet
-25 1690 m 1
 418 1690 l 1
 418 -262 l 1
 -25 -262 l 1
 -25 -114 l 1
 229 -114 l 1
 229 1543 l 1
 -25 1543 l 1
 -25 1690 l 1
EndSplineSet
EndChar

StartChar: asciicircum
Encoding: 94 94 66
Width: 801
GlyphClass: 2
Flags: HMW
LayerCount: 2
Fore
SplineSet
693 1445 m 1
 693 1419 663 1391 638 1391 c 1
 407 1627 l 1
 176 1392 l 1
 151 1392 120 1419 120 1446 c 1
 313 1754 l 2
 331 1783 362 1798 407 1798 c 0
 451 1798 482 1783 501 1754 c 2
 693 1445 l 1
EndSplineSet
EndChar

StartChar: underscore
Encoding: 95 95 67
Width: 1118
GlyphClass: 2
Flags: HMW
LayerCount: 2
Fore
SplineSet
978 0 m 1
 978 -127 l 1
 141 -127 l 1
 141 0 l 1
 978 0 l 1
EndSplineSet
EndChar

StartChar: grave
Encoding: 96 96 68
Width: 679
GlyphClass: 2
Flags: HMW
LayerCount: 2
Fore
SplineSet
92 1540 m 128
 92 1597 128 1640 194 1640 c 128
 241 1640 276 1607 307 1581 c 128
 397 1506 479 1408 565 1332 c 128
 571 1327 574 1319 574 1308 c 128
 574 1297 562 1292 537 1292 c 128
 520 1292 164 1434 159 1438 c 1
 114 1463 92 1497 92 1540 c 128
EndSplineSet
EndChar

StartChar: a
Encoding: 97 97 69
Width: 1109
GlyphClass: 2
Flags: HMW
LayerCount: 2
Back
SplineSet
517 995 m 132
 625 995 762 978 762 888 c 134
 762 0 l 5
 957 0 l 5
 957 1091 l 5
 782 1091 l 5
 760 964 l 5
 726 1086 574 1123 423 1123 c 132
 166 1123 88 1013 88 750 c 6
 88 0 l 5
 283 0 l 5
 283 760 l 6
 283 1016 310 995 517 995 c 132
EndSplineSet
Fore
SplineSet
772 166 m 1
 736 8 619 -14 427 -14 c 128
 208 -14 119 53 109 209 c 0
 106 258 100 306 100 356 c 0
 100 481 178 543 387 570 c 1
 480 580 602 590 762 597 c 1
 762 930 l 2
 762 995 698 1005 540 1005 c 128
 367 1005 319 982 319 942 c 128
 319 898 320 857 323 821 c 1
 158 801 l 1
 150 839 146 860 146 905 c 0
 146 1108 324 1133 554 1133 c 128
 808 1133 957 1078 957 826 c 2
 957 0 l 5
 809 0 l 5
 772 166 l 1
453 114 m 0
 703 114 762 201 762 315 c 2
 762 489 l 1
 651 482 475 464 443 459 c 128
 305 437 278 425 279 345 c 2
 280 235 l 2
 280 130 318 114 453 114 c 0
EndSplineSet
EndChar

StartChar: b
Encoding: 98 98 70
Width: 1206
GlyphClass: 2
Flags: HMW
LayerCount: 2
Back
SplineSet
612 995 m 132
 720 995 857 978 857 888 c 134
 857 0 l 5
 1052 0 l 5
 1052 1091 l 5
 877 1091 l 5
 855 964 l 5
 821 1086 669 1123 518 1123 c 132
 261 1123 183 1013 183 750 c 6
 183 0 l 5
 378 0 l 5
 378 760 l 6
 378 1016 405 995 612 995 c 132
EndSplineSet
Fore
SplineSet
622 1005 m 128
 420 1005 363 984 363 866 c 130
 363 246 l 2
 363 134 434 114 622 114 c 128
 827 114 873 133 873 218 c 130
 873 899 l 2
 873 996 825 1005 622 1005 c 128
1068 371 m 2
 1068 103 991 -14 691 -14 c 0
 507 -14 397 39 364 144 c 1
 343 0 l 5
 168 0 l 5
 168 1542 l 1
 363 1542 l 1
 363 976 l 1
 400 1081 485 1133 671 1133 c 0
 955 1133 1068 1030 1068 778 c 2
 1068 371 l 2
EndSplineSet
EndChar

StartChar: c
Encoding: 99 99 71
Width: 1119
GlyphClass: 2
Flags: HMW
LayerCount: 2
Back
SplineSet
537 995 m 132
 645 995 782 978 782 888 c 134
 782 0 l 5
 977 0 l 5
 977 1091 l 5
 802 1091 l 5
 780 964 l 5
 746 1086 594 1123 443 1123 c 132
 186 1123 108 1013 108 750 c 6
 108 0 l 5
 303 0 l 5
 303 760 l 6
 303 1016 330 995 537 995 c 132
EndSplineSet
Fore
SplineSet
560 1133 m 128
 893 1133 986 1065 984 759 c 1
 816 752 l 5
 806 902 l 2
 801 984 800 1005 572 1005 c 128
 370 1005 316 997 316 902 c 130
 316 211 l 130
 316 131 373 114 551 114 c 128
 757 114 802 122 806 195 c 2
 816 374 l 1
 984 364 l 1
 976 45 939 -14 562 -14 c 256
 237 -14 121 42 121 346 c 2
 121 777 l 2
 121 1078 237 1133 560 1133 c 128
EndSplineSet
EndChar

StartChar: d
Encoding: 100 100 72
Width: 1181
GlyphClass: 2
Flags: HMW
LayerCount: 2
Back
SplineSet
534 995 m 128
 642 995 779 978 779 888 c 130
 779 0 l 1
 974 0 l 1
 974 1091 l 1
 799 1091 l 1
 777 964 l 1
 743 1086 591 1123 440 1123 c 128
 183 1123 105 1013 105 750 c 2
 105 0 l 1
 300 0 l 1
 300 760 l 2
 300 1016 327 995 534 995 c 128
EndSplineSet
Fore
SplineSet
560 1005 m 128
 762 1005 818 984 818 866 c 130
 818 246 l 2
 818 134 747 114 559 114 c 128
 354 114 308 134 308 221 c 130
 308 879 l 2
 308 994 357 1005 560 1005 c 128
113 371 m 2
 113 103 190 -14 490 -14 c 0
 674 -14 783 39 816 144 c 1
 838 0 l 5
 1013 0 l 5
 1013 1542 l 1
 818 1542 l 1
 818 986 l 1
 780 1088 696 1133 510 1133 c 0
 226 1133 113 1030 113 778 c 2
 113 371 l 2
EndSplineSet
EndChar

StartChar: e
Encoding: 101 101 73
Width: 1142
GlyphClass: 2
Flags: HMW
LayerCount: 2
Back
SplineSet
569 995 m 128
 677 995 814 978 814 888 c 130
 814 0 l 1
 1009 0 l 1
 1009 1091 l 1
 834 1091 l 1
 812 964 l 1
 778 1086 626 1123 475 1123 c 128
 218 1123 140 1013 140 750 c 2
 140 0 l 1
 335 0 l 1
 335 760 l 2
 335 1016 362 995 569 995 c 128
EndSplineSet
Fore
SplineSet
585 114 m 128
 767.62890625 114 821.057617188 136 823 183 c 6
 831 347 l 5
 989 337 l 5
 990.963867188 43 939.899414062 -14 607 -14 c 128
 256 -14 121 18 121 352 c 2
 121 777 l 2
 121 1084 239 1133 573 1133 c 128
 895.782226562 1133 1006 1085 1006 777 c 6
 1006 565 l 5
 316 565 l 1
 316 221 l 130
 316 129 376 114 585 114 c 128
316 658 m 1
 811 658 l 5
 811 900 l 6
 811 991 747.865234375 1005 574 1005 c 128
 359 1005 316 994 316 900 c 2
 316 658 l 1
EndSplineSet
EndChar

StartChar: f
Encoding: 102 102 74
Width: 686
GlyphClass: 2
Flags: HMW
LayerCount: 2
Back
SplineSet
624 1175 m 132
 732 1175 869 1158 869 1068 c 134
 869 180 l 5
 1064 180 l 5
 1064 1271 l 5
 889 1271 l 5
 867 1144 l 5
 833 1266 681 1303 530 1303 c 132
 273 1303 195 1193 195 930 c 6
 195 180 l 5
 390 180 l 5
 390 940 l 6
 390 1196 417 1175 624 1175 c 132
EndSplineSet
Fore
SplineSet
198 1238 m 2
 198 1442 237 1529 417 1529 c 128
 463 1529 522 1523 594 1511 c 1
 594 1375 l 1
 393 1375 l 1
 393 1101 l 1
 590 1101 l 1
 590 1002 l 1
 393 1002 l 1
 393 0 l 5
 198 0 l 5
 198 1002 l 1
 70 1002 l 1
 70 1101 l 1
 198 1101 l 1
 198 1238 l 2
EndSplineSet
EndChar

StartChar: g
Encoding: 103 103 75
Width: 1174
GlyphClass: 2
Flags: HMW
LayerCount: 2
Back
SplineSet
560 995 m 132
 668 995 805 978 805 888 c 134
 805 0 l 5
 1000 0 l 5
 1000 1091 l 5
 825 1091 l 5
 803 964 l 5
 769 1086 617 1123 466 1123 c 132
 209 1123 131 1013 131 750 c 6
 131 0 l 5
 326 0 l 5
 326 760 l 6
 326 1016 353 995 560 995 c 132
EndSplineSet
Fore
SplineSet
563 1005 m 128
 373 1005 316 994 316 887 c 130
 316 231 l 2
 316 137 367 128 587 128 c 128
 683 128 818 134 818 208 c 130
 818 860 l 2
 818 982 750 1005 563 1005 c 128
121 748 m 2
 121 1024 188 1133 462 1133 c 0
 659 1133 771 1094 817 975 c 1
 839 1101 l 1
 1013 1101 l 1
 1013 25 l 2
 1013 -269 889 -355 589 -355 c 128
 434 -355 313 -338 226 -303 c 1
 253 -170 l 1
 331 -197 435 -211 564 -211 c 128
 674 -211 817 -208 817 -103 c 2
 817 136 l 1
 789 38 706 0 538 0 c 128
 233 0 121 70.1129943503 121 340 c 2
 121 748 l 2
EndSplineSet
EndChar

StartChar: h
Encoding: 104 104 76
Width: 1195
GlyphClass: 2
Flags: HMW
LayerCount: 2
Back
SplineSet
589 995 m 132
 697 995 834 978 834 888 c 134
 834 0 l 5
 1029 0 l 5
 1029 1091 l 5
 854 1091 l 5
 832 964 l 5
 798 1086 646 1123 495 1123 c 132
 238 1123 160 1013 160 750 c 6
 160 0 l 5
 355 0 l 5
 355 760 l 6
 355 1016 382 995 589 995 c 132
EndSplineSet
Fore
SplineSet
850 902 m 2
 850 981 807 1005 596 1005 c 128
 489 1005 363 982 363 900 c 130
 363 0 l 5
 168 0 l 5
 168 1503 l 1
 363 1503 l 1
 363 1021 l 1
 410 1096 511 1133 666 1133 c 128
 964 1133 1045 1063 1045 842 c 2
 1045 0 l 5
 850 0 l 5
 850 902 l 2
EndSplineSet
EndChar

StartChar: i
Encoding: 105 105 77
Width: 531
GlyphClass: 2
Flags: HMW
LayerCount: 2
Back
SplineSet
582 1625 m 132
 690 1625 827 1608 827 1518 c 134
 827 630 l 5
 1022 630 l 5
 1022 1721 l 5
 847 1721 l 5
 825 1594 l 5
 791 1716 639 1753 488 1753 c 132
 231 1753 153 1643 153 1380 c 6
 153 630 l 5
 348 630 l 5
 348 1390 l 6
 348 1646 375 1625 582 1625 c 132
EndSplineSet
Fore
SplineSet
167 1101 m 1
 362 1101 l 1
 362 0 l 5
 167 0 l 5
 167 1101 l 1
167 1348 m 1
 167 1521 l 1
 362 1521 l 1
 362 1348 l 1
 167 1348 l 1
EndSplineSet
EndChar

StartChar: j
Encoding: 106 106 78
Width: 510
GlyphClass: 2
Flags: HMW
LayerCount: 2
Back
SplineSet
564 1605 m 132
 672 1605 809 1588 809 1498 c 134
 809 610 l 5
 1004 610 l 5
 1004 1701 l 5
 829 1701 l 5
 807 1574 l 5
 773 1696 621 1733 470 1733 c 132
 213 1733 135 1623 135 1360 c 6
 135 610 l 5
 330 610 l 5
 330 1370 l 6
 330 1626 357 1605 564 1605 c 132
EndSplineSet
Fore
SplineSet
340 -41 m 2
 340 -209 273 -291 116 -291 c 0
 75 -291 31 -286 -21 -277 c 1
 -21 -148 l 1
 145 -148 l 1
 145 1101 l 1
 340 1101 l 1
 340 -41 l 2
340 1348 m 1
 145 1348 l 1
 145 1521 l 1
 340 1521 l 1
 340 1348 l 1
EndSplineSet
EndChar

StartChar: k
Encoding: 107 107 79
Width: 1115
GlyphClass: 2
Flags: HMW
LayerCount: 2
Back
SplineSet
581 995 m 132
 689 995 826 978 826 888 c 134
 826 0 l 5
 1021 0 l 5
 1021 1091 l 5
 846 1091 l 5
 824 964 l 5
 790 1086 638 1123 487 1123 c 132
 230 1123 152 1013 152 750 c 6
 152 0 l 5
 347 0 l 5
 347 760 l 6
 347 1016 374 995 581 995 c 132
EndSplineSet
Fore
SplineSet
363 0 m 5
 168 0 l 5
 168 1503 l 1
 363 1503 l 1
 363 632 l 1
 810 1101 l 1
 1031 1101 l 1
 594 648 l 1
 1065 0 l 5
 850 0 l 5
 443 578 l 1
 363 494 l 1
 363 0 l 5
EndSplineSet
EndChar

StartChar: l
Encoding: 108 108 80
Width: 531
GlyphClass: 2
Flags: HMW
LayerCount: 2
Back
SplineSet
581 995 m 128
 689 995 826 978 826 888 c 130
 826 0 l 1
 1021 0 l 1
 1021 1091 l 1
 846 1091 l 1
 824 964 l 1
 790 1086 638 1123 487 1123 c 128
 230 1123 152 1013 152 750 c 2
 152 0 l 1
 347 0 l 1
 347 760 l 2
 347 1016 374 995 581 995 c 128
EndSplineSet
Fore
SplineSet
363 0 m 5
 168 0 l 5
 168 1503 l 1
 363 1503 l 1
 363 1001.6640625 363 501.3359375 363 0 c 5
EndSplineSet
EndChar

StartChar: m
Encoding: 109 109 81
Width: 1760
GlyphClass: 2
Flags: HMW
LayerCount: 2
Back
SplineSet
1151.5 995 m 132
 1259.5 995 1396.5 978 1396.5 888 c 134
 1396.5 0 l 5
 1591.5 0 l 5
 1591.5 1091 l 5
 1416.5 1091 l 5
 1394.5 964 l 5
 1360.5 1086 1208.5 1123 1057.5 1123 c 132
 800.5 1123 722.5 1013 722.5 750 c 6
 722.5 0 l 5
 917.5 0 l 5
 917.5 760 l 6
 917.5 1016 944.5 995 1151.5 995 c 132
EndSplineSet
Fore
SplineSet
349 978 m 1
 412 1110 534 1133 684 1133 c 0
 816 1133 901 1081 938 977 c 1
 987 1081 1092 1133 1252 1133 c 128
 1522 1133 1608 1054 1608 781 c 2
 1608 0 l 5
 1413 0 l 5
 1413 928 l 2
 1413 990 1325 1005 1238 1005 c 0
 990 1005 982 980 982 816 c 2
 982 0 l 5
 787 0 l 5
 787 820 l 2
 787 963 767 1005 561 1005 c 128
 467 1005 347 983 347 901 c 130
 347 0 l 5
 152 0 l 5
 152 1101 l 1
 327 1101 l 1
 349 978 l 1
EndSplineSet
EndChar

StartChar: n
Encoding: 110 110 82
Width: 1172
GlyphClass: 2
Flags: HMW
LayerCount: 2
Fore
SplineSet
592 1005 m 128
 484 1005 347 988 347 898 c 130
 347 0 l 5
 152 0 l 5
 152 1101 l 1
 327 1101 l 1
 349 974 l 1
 383 1096 535 1133 686 1133 c 128
 943 1133 1021 1023 1021 760 c 2
 1021 0 l 5
 826 0 l 5
 826 770 l 2
 826 1026 799 1005 592 1005 c 128
EndSplineSet
EndChar

StartChar: o
Encoding: 111 111 83
Width: 1180
GlyphClass: 2
Flags: HMW
LayerCount: 2
Back
SplineSet
585 995 m 132
 693 995 830 978 830 888 c 134
 830 0 l 5
 1025 0 l 5
 1025 1091 l 5
 850 1091 l 5
 828 964 l 5
 794 1086 642 1123 491 1123 c 132
 234 1123 156 1013 156 750 c 6
 156 0 l 5
 351 0 l 5
 351 760 l 6
 351 1016 378 995 585 995 c 132
EndSplineSet
Fore
SplineSet
580 -14 m 256
 241 -14 121 33 121 346 c 2
 121 777 l 2
 121 1086 241 1133 580 1133 c 0
 915 1133 1038 1087 1038 777 c 6
 1038 352 l 6
 1038 36 923 -14 580 -14 c 256
843 902 m 2
 843 1010 750 1005 580 1005 c 0
 416 1005 316 1009 316 902 c 2
 316 206 l 2
 316 115 407 114 580 114 c 0
 763 114 843 125 843 210 c 2
 843 902 l 2
EndSplineSet
EndChar

StartChar: p
Encoding: 112 112 84
Width: 1192
GlyphClass: 2
Flags: HMW
LayerCount: 2
Back
SplineSet
597 995 m 132
 705 995 842 978 842 888 c 134
 842 0 l 5
 1037 0 l 5
 1037 1091 l 5
 862 1091 l 5
 840 964 l 5
 806 1086 654 1123 503 1123 c 132
 246 1123 168 1013 168 750 c 6
 168 0 l 5
 363 0 l 5
 363 760 l 6
 363 1016 390 995 597 995 c 132
EndSplineSet
Fore
SplineSet
605 114 m 132
 403 114 347 133 347 244 c 130
 347 873 l 2
 347 985 418 1005 606 1005 c 128
 811 1005 857 984 857 889 c 130
 857 220 l 2
 857 123 808 114 605 114 c 132
1052 748 m 2
 1052 1016 975 1133 675 1133 c 0
 491 1133 382 1081 349 976 c 1
 327 1101 l 1
 152 1101 l 1
 152 -386 l 1
 347 -386 l 1
 347 103 l 1
 367 25 469 -14 655 -14 c 0
 939 -14 1052 89 1052 341 c 2
 1052 748 l 2
EndSplineSet
EndChar

StartChar: q
Encoding: 113 113 85
Width: 1182
GlyphClass: 2
Flags: HMW
LayerCount: 2
Fore
SplineSet
565 114 m 128
 767 114 823 133 823 242 c 130
 823 873 l 2
 823 985 752 1005 564 1005 c 132
 359 1005 313 984 313 889 c 130
 313 220 l 2
 313 123 362 114 565 114 c 128
118 748 m 2
 118 1016 195 1133 495 1133 c 0
 679 1133 788 1081 821 976 c 1
 843 1101 l 1
 1018 1101 l 1
 1018 -386 l 1
 823 -386 l 1
 823 103 l 1
 803 25 701 -14 515 -14 c 0
 231 -14 118 89 118 341 c 2
 118 748 l 2
EndSplineSet
EndChar

StartChar: r
Encoding: 114 114 86
Width: 704
GlyphClass: 2
Flags: HMW
LayerCount: 2
Back
SplineSet
563 995 m 132
 671 995 808 978 808 888 c 134
 808 0 l 5
 1003 0 l 5
 1003 1091 l 5
 828 1091 l 5
 806 964 l 5
 772 1086 620 1123 469 1123 c 132
 212 1123 134 1013 134 750 c 6
 134 0 l 5
 329 0 l 5
 329 760 l 6
 329 1016 356 995 563 995 c 132
EndSplineSet
Fore
SplineSet
501 972 m 6
 397 972 346 928.005859375 346 842 c 6
 346 0 l 5
 151 0 l 5
 151 1101 l 5
 325 1101 l 5
 348 974 l 5
 391 1080 480 1134 615 1134 c 5
 615 972 l 5
 501 972 l 6
EndSplineSet
EndChar

StartChar: s
Encoding: 115 115 87
Width: 1084
GlyphClass: 2
Flags: HMW
LayerCount: 2
Fore
SplineSet
579 -14 m 0
 290 -14 120 -4 119 248 c 0
 119 271 122 294 127 316 c 1
 292 336 l 1
 292 237 l 2
 292 129 301 114 563 114 c 128
 714 114 784 126 784 200 c 2
 784 412 l 2
 784 469 768 492 686 499 c 2
 405 523 l 2
 192 545 125 605 125 844 c 0
 125 1088 233 1133 537 1133 c 128
 769 1133 922 1117 922 923 c 128
 922 901 919 881 914 863 c 1
 773 843 l 1
 773 984 774 1005 530 1005 c 132
 362 1005 305 998 305 928 c 2
 304 768 l 2
 304 692 321 673 427 666 c 2
 703 642 l 2
 914 624 959 552 959 305 c 0
 959 41 852 -14 579 -14 c 0
EndSplineSet
EndChar

StartChar: t
Encoding: 116 116 88
Width: 702
GlyphClass: 2
Flags: HMW
LayerCount: 2
Back
SplineSet
636 995 m 132
 744 995 881 978 881 888 c 134
 881 0 l 5
 1076 0 l 5
 1076 1091 l 5
 901 1091 l 5
 879 964 l 5
 845 1086 693 1123 542 1123 c 132
 285 1123 207 1013 207 750 c 6
 207 0 l 5
 402 0 l 5
 402 760 l 6
 402 1016 429 995 636 995 c 132
EndSplineSet
Fore
SplineSet
442 -14 m 0
 287 -14 209 46 209 165 c 2
 209 1002 l 1
 61 1002 l 1
 61 1101 l 1
 209 1101 l 1
 209 1414 l 1
 404 1414 l 1
 404 1101 l 1
 595 1101 l 1
 595 1002 l 1
 404 1002 l 1
 404 127 l 1
 585 127 l 1
 585 -6 l 1
 534 -11 487 -14 442 -14 c 0
EndSplineSet
EndChar

StartChar: u
Encoding: 117 117 89
Width: 1170
GlyphClass: 2
Flags: HMW
LayerCount: 2
Fore
SplineSet
569 114 m 128
 677 114 813 131 813 222 c 130
 813 1101 l 1
 1010 1101 l 1
 1010 -1 l 5
 833 -1 l 5
 811 146 l 1
 777 23 626 -14 475 -14 c 128
 218 -14 139 96 139 360 c 2
 139 1101 l 1
 334 1101 l 1
 334 276 l 2
 334 142 362 114 569 114 c 128
EndSplineSet
EndChar

StartChar: v
Encoding: 118 118 90
Width: 1052
GlyphClass: 2
Flags: HMW
LayerCount: 2
Fore
SplineSet
972 1101 m 1
 611 0 l 1
 397 0 l 1
 59 1101 l 1
 238 1101 l 1
 505 162 l 1
 772 1101 l 1
 972 1101 l 1
EndSplineSet
EndChar

StartChar: w
Encoding: 119 119 91
Width: 1590
GlyphClass: 2
Flags: HMW
LayerCount: 2
Fore
SplineSet
1104 219 m 5
 1307 1101 l 1
 1501 1101 l 1
 1218 0 l 5
 1036 0 l 5
 790 845 l 1
 558 0 l 5
 353 0 l 5
 66 1101 l 1
 251 1101 l 1
 451 219 l 5
 697 1101 l 1
 875 1101 l 1
 1104 219 l 5
EndSplineSet
EndChar

StartChar: x
Encoding: 120 120 92
Width: 1070
GlyphClass: 2
Flags: HMW
LayerCount: 2
Fore
SplineSet
533 434 m 1
 281 0 l 5
 81 0 l 5
 428 566 l 1
 86 1101 l 1
 286 1101 l 1
 532 684 l 1
 779 1101 l 1
 976 1101 l 1
 640 564 l 1
 983 0 l 5
 783 0 l 5
 533 434 l 1
EndSplineSet
EndChar

StartChar: y
Encoding: 121 121 93
Width: 1070
GlyphClass: 2
Flags: HMW
LayerCount: 2
Fore
SplineSet
331 -203 m 128
 409 -203 418.306640625 -191.067382812 439 -93 c 2
 462 16 l 1
 48 1101 l 1
 242 1101 l 1
 551 256 l 1
 794 1101 l 1
 991 1101 l 1
 560 -233 l 2
 531 -322 493 -341 359 -341 c 0
 281 -341 203 -331 125 -313 c 1
 151 -182 l 1
 223 -196 283 -203 331 -203 c 128
EndSplineSet
EndChar

StartChar: z
Encoding: 122 122 94
Width: 920
GlyphClass: 2
Flags: HMW
LayerCount: 2
Back
SplineSet
464 0 m 256
 125 0 5 47 5 360 c 2
 5 791 l 2
 5 1100 125 1147 464 1147 c 0
 800 1147 924 1101 924 791 c 2
 924 366 l 2
 924 50 808 0 464 0 c 256
727 916 m 2
 727 1023.1 634 1018 464 1018 c 0
 300 1018 200 1022.08 200 916 c 2
 200 220 l 2
 200 129.033707865 291 128 464 128 c 0
 647 128 727 139.35483871 727 224 c 2
 727 916 l 2
EndSplineSet
Fore
SplineSet
781 1101 m 1
 791 969 l 1
 306 127 l 5
 798 127 l 1
 788 0 l 1
 102 0 l 1
 102 136 l 1
 601 972 l 1
 148 972 l 1
 138 1101 l 1
 781 1101 l 1
EndSplineSet
EndChar

StartChar: braceleft
Encoding: 123 123 95
Width: 637
GlyphClass: 2
Flags: HMW
LayerCount: 2
Fore
SplineSet
657 -172 m 1
 472 -172 348 -112 285 8 c 0
 221 130 217 253 205 416 c 128
 195 546 177 664 60 664 c 1
 60 858 l 1
 132 858 177 918 196 1038 c 0
 202 1074 209 1129 218 1204 c 128
 227 1279 242 1353 263 1426 c 128
 284 1499 326 1561 387 1614 c 128
 448 1667 538 1694 656 1694 c 1
 656 1530 l 1
 523 1530 444 1460 417 1320 c 0
 395 1200 397 1021 379 897 c 128
 370 833 343 787 298 758 c 1
 358 724 390 639 394 502 c 0
 400 292 421 155 459 90 c 128
 497 25 563 -8 657 -8 c 1
 657 -172 l 1
EndSplineSet
EndChar

StartChar: bar
Encoding: 124 124 96
Width: 510
GlyphClass: 2
Flags: HMW
LayerCount: 2
Fore
SplineSet
344 1716 m 1
 344 -98 l 1
 169 -98 l 1
 169 1716 l 1
 344 1716 l 1
EndSplineSet
EndChar

StartChar: braceright
Encoding: 125 125 97
Width: 648
GlyphClass: 2
Flags: HMW
LayerCount: 2
Fore
SplineSet
-11 1530 m 1
 -11 1694 l 1
 193 1694 323 1606 379 1430 c 0
 404 1353 421 1269 430 1180 c 128
 446 1027 460 858 585 858 c 1
 585 664 l 1
 506 664 459 604 446 484 c 0
 442 448 437 390 431 312 c 128
 425 234 413 160 395 90 c 128
 377 20 336 -42 273 -94 c 128
 210 -146 115 -172 -12 -172 c 1
 -12 -8 l 1
 121 -8 201 63 228 204 c 0
 250 323 248 504 266 626 c 128
 275 689 302 733 347 758 c 1
 287 797 255 884 251 1020 c 0
 245 1233 224 1370 186 1434 c 128
 148 1498 82 1530 -11 1530 c 1
EndSplineSet
EndChar

StartChar: asciitilde
Encoding: 126 126 98
Width: 1015
GlyphClass: 2
Flags: HMW
LayerCount: 2
Fore
SplineSet
659 839 m 0
 533 839 373 952 255 952 c 128
 194 952 164 930 134 903 c 128
 127 897 121 894 113 894 c 128
 105 894 101 901 101 916 c 128
 101 931 112 954 135 985 c 0
 200 1075 275 1120 358 1120 c 0
 406 1120 466 1107 539 1080 c 128
 612 1053 666 1034 701 1022 c 128
 736 1010 764 1004 784 1004 c 128
 837 1004 867 1032 895 1056 c 128
 902 1062 909 1065 917 1065 c 128
 925 1065 929 1058 929 1044 c 128
 929 1030 918 1008 896 980 c 0
 821 886 742 839 659 839 c 0
EndSplineSet
EndChar

StartChar: exclamdown
Encoding: 161 161 99
Width: 514
GlyphClass: 2
Flags: HMW
LayerCount: 2
Fore
SplineSet
148 112 m 0
 148 264 161 443 187 650 c 128
 213 857 231 966 237 976 c 128
 243 986 252 991 263 991 c 128
 274 991 283 977 289 950 c 128
 295 923 309 822 331 644 c 128
 353 466 365 331 365 238 c 128
 365 145 363 85 359 58 c 128
 351 4 341 -38 278 -38 c 0
 191 -38 148 12 148 112 c 0
258 1244 m 0
 173 1244 111 1313 111 1400 c 0
 111 1471 141 1519 201 1544 c 0
 219 1552 238 1556 258 1556 c 0
 344 1556 406 1489 406 1400 c 0
 406 1313 354 1244 258 1244 c 0
EndSplineSet
EndChar

StartChar: cent
Encoding: 162 162 100
Width: 1067
GlyphClass: 2
Flags: HMW
LayerCount: 2
Fore
SplineSet
525 1505 m 1
 598 1505 l 1
 598 -72 l 1
 525 -72 l 1
 525 1505 l 1
999 1028 m 0
 999 983 998 946 995 915 c 1
 995 911 l 1
 807 911 l 1
 807 942 l 2
 807 1025 803 1079 796 1106 c 128
 789 1133 772 1150 744 1156 c 128
 716 1162 657 1165 565 1165 c 128
 473 1165 411 1162 380 1156 c 128
 349 1150 330 1132 322 1106 c 128
 314 1080 310 1025 310 942 c 2
 310 481 l 2
 310 399 314 346 322 320 c 128
 330 294 349 278 380 272 c 128
 411 266 466 262 544 262 c 128
 622 262 676 264 708 266 c 128
 740 268 763 276 778 290 c 0
 797 308 807 372 807 481 c 2
 807 510 l 1
 995 510 l 1
 996 497 997 485 997 474 c 2
 997 441 l 2
 997 315 968 229 909 184 c 128
 850 139 732 116 555 116 c 128
 378 116 259 144 198 200 c 0
 143 251 115 350 115 497 c 2
 115 940 l 2
 115 1083 144 1181 203 1233 c 128
 262 1285 378 1311 552 1311 c 128
 726 1311 844 1290 906 1247 c 128
 968 1204 999 1131 999 1028 c 0
EndSplineSet
EndChar

StartChar: sterling
Encoding: 163 163 101
Width: 1427
GlyphClass: 2
Flags: HMW
LayerCount: 2
Fore
SplineSet
604 0 m 2
 429.4296875 0 335.91015625 54 325 162 c 1
 318 54 241 0 93 0 c 1
 93 222 l 1
 236.732421875 222 241 214.106445312 241 348 c 2
 241 724 l 1
 95 724 l 1
 95 862 l 1
 241 862 l 1
 241 1117 l 2
 241 1510.06152344 401.1484375 1557 796 1557 c 128
 1122.30566406 1557 1309 1545.66992188 1309 1240 c 2
 1309 1046 l 1
 1125 1046 l 1
 1124 1290.29980469 l 1
 1122.67480469 1364.92675781 1070.32421875 1372 825 1372 c 0
 536.524414062 1372 438 1357.58398438 438 1262.29980469 c 2
 438 861 l 1
 1026 861 l 1
 1026 723 l 1
 439 723 l 1
 439 252.299804688 l 2
 439 189.706054688 556.248046875 174 788 174 c 0
 1038.48339844 174 1146 185.776367188 1146 264.299804688 c 2
 1146 510 l 1
 1327 510 l 1
 1327 344 l 2
 1327 69.515625 1248.73144531 0 965 0 c 2
 604 0 l 2
EndSplineSet
EndChar

StartChar: currency
Encoding: 164 164 102
Width: 1123
GlyphClass: 2
Flags: HMW
LayerCount: 2
Fore
SplineSet
145 764 m 0
 145 894.005859375 184 995.7109375 262 1070 c 1
 124 1241 l 1
 187 1311 l 1
 337 1130 l 1
 396 1169.33300781 471 1189 562 1189 c 128
 653 1189 727 1170.33300781 786 1133 c 1
 938 1310 l 1
 1002 1240 l 1
 864 1071 l 1
 944 995.826171875 984 894.12109375 984 765 c 128
 984 635.78125 944 533.115234375 864 457 c 1
 1003 287 l 1
 939 218 l 1
 789 397 l 1
 729 365.235351562 654 349 564 349 c 0
 471 349 395 365.333007812 336 398 c 1
 186 218 l 1
 123 287 l 1
 262 457 l 1
 184 531.317382812 145 633.9453125 145 764 c 0
877 772 m 0
 877 982.208007812 793 1098 564 1098 c 0
 355 1098 250 989.370117188 250 773 c 0
 250 555.666992188 340 447 564 447 c 0
 773 447 877 555.629882812 877 772 c 0
EndSplineSet
EndChar

StartChar: yen
Encoding: 165 165 103
Width: 1120
GlyphClass: 2
Flags: HMW
LayerCount: 2
Fore
SplineSet
665 293 m 1
 665 0 l 1
 466 0 l 1
 466 293 l 1
 144 293 l 1
 144 394 l 1
 466 394 l 1
 466 510 l 1
 438 572 l 1
 144 572 l 1
 144 672 l 1
 394 672 l 1
 41 1499 l 1
 256 1499 l 1
 570 723 l 1
 890 1499 l 1
 1098 1499 l 1
 738 672 l 1
 977 672 l 1
 977 572 l 1
 693 572 l 1
 665 510 l 1
 665 394 l 1
 977 394 l 1
 977 293 l 1
 665 293 l 1
EndSplineSet
EndChar

StartChar: brokenbar
Encoding: 166 166 104
Width: 510
GlyphClass: 2
Flags: HMW
LayerCount: 2
Fore
SplineSet
349 563 m 1
 349 -249 l 1
 162 -249 l 1
 162 563 l 1
 349 563 l 1
349 1631 m 1
 349 819 l 1
 162 819 l 1
 162 1631 l 1
 349 1631 l 1
EndSplineSet
EndChar

StartChar: section
Encoding: 167 167 105
Width: 1062
GlyphClass: 2
Flags: HMW
LayerCount: 2
Fore
SplineSet
571 -10 m 128
 718 -10 744 32 744 198 c 128
 744 335 708 391 602 403 c 128
 538 411 487 420 424 429 c 0
 217 460 146 537 146 762 c 128
 146 866 178 943 242 993 c 1
 179 1050 148 1146 148 1282 c 128
 148 1556.0546875 262.5859375 1613 535 1613 c 128
 814.130859375 1613 925 1548.46191406 925 1263 c 1
 754 1263 l 1
 754 1464.60058594 707.084960938 1482 533 1482 c 0
 345.911132812 1482 320 1463.91796875 320 1277 c 128
 320 1133.02636719 334.181640625 1097.03222656 423 1078 c 128
 451 1072 515 1060 615 1043 c 128
 813.012695312 1009.33789062 920 965.052734375 920 733 c 128
 920 619 886 538 818 489 c 1
 884 432 917 334 917 195 c 128
 917 56 885 -35 823 -77 c 128
 761 -119 661 -140 524 -140 c 128
 243.953125 -140 131 -75.841796875 131 210 c 1
 303 210 l 1
 303 -19.537109375 371.474609375 -10 571 -10 c 128
322 775 m 128
 322 669 333 617 405 590 c 128
 490 558 602 556 711 543 c 1
 732 560 743 608 743 685 c 128
 743 845.244140625 707.88671875 861.2265625 591 885 c 128
 510 902 434 915 347 939 c 1
 330 877 322 823 322 775 c 128
EndSplineSet
EndChar

StartChar: dieresis
Encoding: 168 168 106
Width: 982
GlyphClass: 2
Flags: HMW
LayerCount: 2
Fore
SplineSet
609 244 m 4
 609 335 670 371 740 371 c 4
 810 371 869 336 869 244 c 4
 869 152 810 117 740 117 c 4
 670 117 609 154 609 244 c 4
117 244 m 0
 117 335 178 371 248 371 c 0
 318 371 377 336 377 244 c 0
 377 152 318 117 248 117 c 0
 178 117 117 154 117 244 c 0
EndSplineSet
EndChar

StartChar: copyright
Encoding: 169 169 107
Width: 1734
GlyphClass: 2
Flags: HMW
LayerCount: 2
Fore
SplineSet
94 762 m 0
 94 1274.57226562 483.307617188 1531.91210938 872.2109375 1531.91210938 c 0
 1260.30664062 1531.91210938 1648 1275.63964844 1648 761 c 0
 1648 254.375 1258.6953125 0.021484375 869.793945312 0.021484375 c 0
 481.696289062 0.021484375 94 253.32421875 94 762 c 0
207 760 m 0
 207 315.1328125 539.850585938 91.8408203125 872.275390625 91.8408203125 c 0
 1203.84960938 91.8408203125 1535 313.9921875 1535 760 c 0
 1535 1211.31347656 1202.14941406 1437.84179688 869.724609375 1437.84179688 c 0
 538.150390625 1437.84179688 207 1212.47070312 207 760 c 0
879 341 m 128
 1108.14257812 341 1114.08984375 353.239257812 1119.12890625 451.5 c 2
 1129 644 l 1
 1255 644 l 1
 1255 279 1208.60449219 226 879 226 c 128
 521 226 468 320 468 688 c 2
 468 865 l 2
 468 1234 521 1327 879 1327 c 128
 1208.60449219 1327 1255 1252 1255 909 c 1
 1129 909 l 1
 1119.08496094 1072.5 l 2
 1119.14160156 1186.5 1109.41699219 1212 879 1212 c 128
 625.106445312 1212 612.854492188 1186.77929688 612.860351562 1063.5 c 2
 612.884765625 505.5 l 2
 612.8984375 350.2421875 624.455078125 341 879 341 c 128
EndSplineSet
EndChar

StartChar: guillemotleft
Encoding: 171 171 109
Width: 1234
GlyphClass: 2
Flags: HMW
LayerCount: 2
Fore
SplineSet
580 1254 m 128
 618 1254 644 1224 644 1188 c 128
 644 1171 636 1147 620 1116 c 1
 280 716 l 1
 620 316 l 1
 636 287 644 263 644 245 c 0
 644 200 621 178 576 178 c 0
 553 178 533 186 515 202 c 2
 125 574 l 2
 86 612 66 659 66 716 c 256
 66 773 86 820 125 858 c 2
 515 1229 l 1
 538 1246 560 1254 580 1254 c 128
1085 1254 m 128
 1121 1254 1147 1223 1147 1188 c 128
 1147 1172 1139 1148 1123 1116 c 1
 790 716 l 1
 1123 316 l 1
 1139 285 1147 261 1147 244 c 0
 1147 200 1125 178 1081 178 c 0
 1060 178 1040 186 1022 202 c 2
 630 574 l 2
 588 613 567 661 567 716 c 0
 567 773 588 820 630 858 c 1
 1022 1229 l 1
 1045 1246 1066 1254 1085 1254 c 128
EndSplineSet
EndChar

StartChar: logicalnot
Encoding: 172 172 110
Width: 1221
GlyphClass: 2
Flags: HMW
LayerCount: 2
Fore
SplineSet
1067 294 m 1
 926 294 l 1
 926 773 l 1
 97 773 l 1
 97 962 l 1
 1067 962 l 1
 1067 294 l 1
EndSplineSet
EndChar

StartChar: uni00AD
Encoding: 173 173 111
Width: 1050
GlyphClass: 2
Flags: HMW
LayerCount: 2
Fore
SplineSet
920 549 m 1
 134 549 l 1
 134 728 l 1
 920 728 l 1
 920 549 l 1
EndSplineSet
EndChar

StartChar: registered
Encoding: 174 174 112
Width: 1734
GlyphClass: 2
Flags: HMW
LayerCount: 2
Fore
SplineSet
94 762 m 0
 94 1274.57226562 483.307617188 1531.91210938 872.2109375 1531.91210938 c 0
 1260.30664062 1531.91210938 1648 1275.63964844 1648 761 c 0
 1648 254.375 1258.6953125 0.021484375 869.793945312 0.021484375 c 0
 481.696289062 0.021484375 94 253.32421875 94 762 c 0
207 760 m 0
 207 315.1328125 539.850585938 91.8408203125 872.275390625 91.8408203125 c 0
 1203.84960938 91.8408203125 1535 313.9921875 1535 760 c 0
 1535 1211.31347656 1202.14941406 1437.84179688 869.724609375 1437.84179688 c 0
 538.150390625 1437.84179688 207 1212.47070312 207 760 c 0
879 1288 m 2
 1138.97265625 1288 1241 1252.52441406 1241 1021 c 0
 1241 873.5546875 1184.33300781 796.19140625 1071 788 c 1
 1167.81640625 783 1233 720 1233 609 c 2
 1233 268 l 1
 1099 268 l 1
 1099 564 l 2
 1099 722.45703125 1088 734 946 734 c 2
 682 734 l 1
 683 267 l 1
 555 267 l 1
 555 1288 l 1
 879 1288 l 2
1104 1007 m 128
 1104 1175.4296875 1061 1183 877 1183 c 2
 682 1183 l 1
 682 832 l 1
 879 832 l 2
 1059 832 1104 849.051757812 1104 1007 c 128
EndSplineSet
EndChar

StartChar: macron
Encoding: 175 175 113
Width: 846
GlyphClass: 2
Flags: HMW
LayerCount: 2
Fore
SplineSet
726 838 m 1
 726 711 l 1
 129 711 l 1
 129 838 l 1
 726 838 l 1
EndSplineSet
EndChar

StartChar: degree
Encoding: 176 176 114
Width: 829
GlyphClass: 2
Flags: HMW
LayerCount: 2
Fore
SplineSet
111 1322 m 0
 111 1487.63085938 257.36328125 1597 419 1597 c 0
 579.947265625 1597 726 1485.66308594 726 1321 c 256
 726 1154.88574219 581.7265625 1046 419 1046 c 0
 256.828125 1046 111 1155.85351562 111 1322 c 0
419 1155 m 128
 503 1155 551 1235 551 1321 c 256
 551 1407 502 1486 418 1486 c 128
 335 1486 289 1406 289 1321 c 0
 289 1235 335 1155 419 1155 c 128
EndSplineSet
EndChar

StartChar: plusminus
Encoding: 177 177 115
Width: 965
GlyphClass: 2
Flags: HMW
LayerCount: 2
Fore
SplineSet
568 1117 m 1
 568 754 l 1
 877 754 l 1
 877 585 l 1
 568 585 l 1
 568 223 l 1
 402 223 l 1
 402 585 l 1
 93 585 l 1
 93 754 l 1
 402 754 l 1
 402 1117 l 1
 568 1117 l 1
878 -24 m 1
 92 -24 l 1
 92 139 l 1
 878 139 l 1
 878 -24 l 1
EndSplineSet
EndChar

StartChar: acute
Encoding: 180 180 118
Width: 670
GlyphClass: 2
Flags: HMW
LayerCount: 2
Fore
SplineSet
511 1640 m 128
 559 1640 592 1583 592 1528 c 128
 592 1493 570 1463 526 1438 c 1
 513 1427 446 1399 325 1356 c 128
 204 1313 139 1292 128 1292 c 128
 117 1292 111 1297 111 1308 c 128
 111 1319 114 1327 120 1332 c 128
 126 1337 134 1346 145 1357 c 0
 313 1530 420 1623 466 1636 c 0
 477 1639 492 1640 511 1640 c 128
EndSplineSet
EndChar

StartChar: paragraph
Encoding: 182 182 120
Width: 1060
GlyphClass: 2
Flags: HMW
LayerCount: 2
Fore
SplineSet
398 845 m 0
 187 845 60 963 60 1190 c 0
 60 1451 226 1521 508 1521 c 2
 895 1521 l 1
 895 0 l 1
 742 0 l 1
 742 844 l 1
 571 844 l 1
 571 0 l 1
 417 0 l 1
 417 845 l 1
 407 845 407 845 398 845 c 0
EndSplineSet
EndChar

StartChar: periodcentered
Encoding: 183 183 121
Width: 526
GlyphClass: 2
Flags: HMW
LayerCount: 2
Fore
SplineSet
265 528 m 0
 183 528 125 598 125 682 c 0
 125 767 174 836 265 836 c 0
 349 836 405 769 405 682 c 0
 405 598 356 528 265 528 c 0
EndSplineSet
EndChar

StartChar: cedilla
Encoding: 184 184 122
Width: 723
GlyphClass: 2
Flags: HMW
LayerCount: 2
Fore
SplineSet
106 -426 m 0
 106 -401 126 -373 149 -373 c 128
 159 -373 180 -382 212 -401 c 128
 244 -420 282 -429 326 -429 c 128
 370 -429 392 -411 392 -376 c 0
 392 -318 346 -289 254 -289 c 1
 266 -237 279 -190 291 -144 c 2
 329 0 l 1
 438 0 l 1
 389 -168 l 1
 424 -174 442 -173 486 -184 c 128
 560 -202 608 -261 608 -364 c 128
 608 -489 501 -557 374 -557 c 128
 281 -557 106 -507 106 -426 c 0
EndSplineSet
EndChar

StartChar: guillemotright
Encoding: 187 187 125
Width: 1239
GlyphClass: 2
Flags: HMW
LayerCount: 2
Fore
SplineSet
100 1185 m 0
 100 1231 121 1254 162 1254 c 0
 182 1254 203 1246 225 1229 c 1
 617 858 l 2
 658 819 679 772 679 716 c 0
 679 661 658 614 617 574 c 2
 225 202 l 2
 208 186 189 178 166 178 c 0
 122 178 100 201 100 247 c 0
 100 266 108 289 123 316 c 1
 455 716 l 1
 123 1116 l 1
 108 1144 100 1167 100 1185 c 0
671 178 m 128
 628 178 602 205 602 246 c 128
 602 265 610 289 627 316 c 1
 966 716 l 1
 627 1116 l 1
 610 1145 602 1168 602 1186 c 128
 602 1223 629 1254 667 1254 c 128
 687 1254 709 1246 732 1229 c 1
 1121 858 l 2
 1160 820 1180 773 1180 716 c 128
 1180 659 1160 612 1121 574 c 2
 732 202 l 2
 715 186 694 178 671 178 c 128
EndSplineSet
EndChar

StartChar: onequarter
Encoding: 188 188 126
Width: 707
GlyphClass: 2
Flags: HMW
LayerCount: 2
Fore
SplineSet
55 805 m 5
 675 805 l 5
 675 734 l 5
 55 734 l 5
 55 805 l 5
268 1378 m 5
 268 1431 l 5
 319.73046875 1431 350.209960938 1457.44726562 350.209960938 1499 c 5
 427.54296875 1499 l 5
 427.54296875 898 l 5
 337.498046875 898 l 5
 337.498046875 1378 l 5
 268 1378 l 5
356 152 m 5
 142 152 l 5
 104 220 l 5
 335 616 l 5
 447 616 l 5
 447 220 l 5
 549 220 l 5
 549 152 l 5
 447 152 l 5
 447 0 l 5
 356 0 l 5
 356 152 l 5
356 220 m 5
 356 544 l 5
 298.282226562 432.694335938 242.872070312 330.204101562 184 220 c 5
 356 220 l 5
EndSplineSet
LCarets2: 2 0 0 
Ligature2: "'liga'" one slash four
EndChar

StartChar: onehalf
Encoding: 189 189 127
Width: 705
GlyphClass: 2
Flags: HW
LayerCount: 2
Fore
SplineSet
465.220703125 437.809570312 m 2
 465.220703125 494.3359375 l 2
 465.220703125 566.62890625 458.091796875 573.287109375 364.8515625 573.287109375 c 0
 269.100585938 573.287109375 251.813476562 571.719726562 247.544921875 498.123046875 c 1
 250.9375 462.575195312 l 1
 167.543945312 470.008789062 l 1
 165.153320312 486.396484375 162.110351562 504.850585938 162.110351562 521.594726562 c 0
 162.110351562 620.9609375 246.2890625 646.444335938 356.541992188 646.444335938 c 0
 495.071289062 646.444335938 557.735351562 623.4921875 557.232421875 484.384765625 c 2
 557.069335938 441.911132812 l 2
 556.14453125 205.430664062 252.276367188 230.66796875 252.276367188 89.0947265625 c 2
 252.358398438 71.6513671875 l 1
 547 71.6513671875 l 1
 547 0 l 1
 161.235351562 0 l 1
 161.235351562 75.375 l 2
 161.235351562 299.09375 465.220703125 265.37109375 465.220703125 437.809570312 c 2
49 805 m 1
 669 805 l 5
 669 734 l 5
 49 734 l 1
 49 805 l 1
232 1378 m 1
 232 1431 l 1
 283.73046875 1431 314.209960938 1457.44726562 314.209960938 1499 c 1
 391.54296875 1499 l 1
 391.54296875 898 l 1
 301.498046875 898 l 1
 301.498046875 1378 l 1
 232 1378 l 1
EndSplineSet
LCarets2: 2 0 0 
Ligature2: "'liga'" one slash two
EndChar

StartChar: threequarters
Encoding: 190 190 128
Width: 752
GlyphClass: 2
Flags: HW
LayerCount: 2
Fore
SplineSet
479.591796875 1210.40625 m 1
 489.551757812 1210.1796875 576 1211.59277344 576 1329.23046875 c 0
 576 1435.94042969 525.708984375 1481.29980469 394.875 1481.29980469 c 0
 263.416992188 1481.29980469 226.750976562 1452.54492188 226.750976562 1382.96484375 c 0
 226.750976562 1366.30664062 228.263671875 1350.87988281 229.47265625 1334.46582031 c 1
 293.876953125 1330.91601562 l 1
 292.283203125 1376.68066406 l 1
 292.46484375 1408.05664062 315.885742188 1415.81835938 389.649414062 1415.81835938 c 0
 470.024414062 1415.81835938 495.626953125 1404.59375 495.771484375 1346.29980469 c 2
 496.140625 1287.78027344 l 2
 496.444335938 1239.68066406 440.693359375 1237.45117188 380.622070312 1237.45117188 c 0
 371.922851562 1237.45117188 363.598632812 1237.56054688 353.858398438 1237.58203125 c 1
 357.2578125 1185.12402344 l 1
 461.016601562 1185.09472656 495.19921875 1183.11132812 496.140625 1105.65527344 c 2
 496.853515625 1047 l 2
 496.694335938 988.2109375 469.543945312 979.405273438 380.229492188 979.405273438 c 0
 318.879882812 979.405273438 291.184570312 986.737304688 291.532226562 1020.625 c 2
 291.982421875 1064.72363281 l 1
 225.4296875 1063.29492188 l 1
 224.143554688 1049.14355469 222 1030.47167969 222 1014.26953125 c 0
 222 933.293945312 279.467773438 914.923828125 373.390625 914.923828125 c 0
 506.475585938 914.923828125 576 938.994140625 576 1068.36816406 c 0
 576 1201.29296875 489.551757812 1209.86132812 479.591796875 1210.40625 c 1
68 805 m 1
 688 805 l 1
 688 734 l 1
 68 734 l 1
 68 805 l 1
369 152 m 1
 155 152 l 1
 117 220 l 1
 348 616 l 1
 460 616 l 1
 460 220 l 1
 562 220 l 1
 562 152 l 1
 460 152 l 1
 460 0 l 1
 369 0 l 1
 369 152 l 1
369 220 m 1
 369 544 l 1
 311.282226562 432.694335938 255.872070312 330.204101562 197 220 c 1
 369 220 l 1
EndSplineSet
LCarets2: 2 0 0 
Ligature2: "'liga'" three slash four
EndChar

StartChar: questiondown
Encoding: 191 191 129
Width: 699
GlyphClass: 2
Flags: HMW
LayerCount: 2
Fore
SplineSet
419 -24 m 0
 178 -24 58 96 58 335 c 0
 58 451 109 569 212 688 c 0
 314.419921875 807.235351562 373.318359375 869.454101562 389 1020 c 1
 471 1019 l 1
 471 879.41796875 441 762.088867188 382 666 c 128
 296.620117188 528.5234375 251 486.932617188 251 346 c 0
 251 222 312 160 435 160 c 0
 476 160 551 174 658 202 c 1
 681 37 l 1
 575 -4 488 -24 419 -24 c 0
437 1546 m 0
 519 1546 577 1476 577 1392 c 0
 577 1308.16503906 528.284179688 1238 438 1238 c 0
 358 1238 297 1297 297 1392 c 0
 297 1476 346 1546 437 1546 c 0
EndSplineSet
EndChar

StartChar: AE
Encoding: 198 198 136
Width: 1947
GlyphClass: 2
Flags: HMW
LayerCount: 2
Fore
SplineSet
1174 703 m 1
 1174 160 l 1
 1837 160 l 1
 1837 0 l 1
 975 0 l 1
 975 389 l 1
 424 389 l 1
 201 0 l 1
 19 0 l 1
 892 1499 l 1
 1821 1499 l 1
 1821 1339 l 1
 1174 1339 l 1
 1174 863 l 1
 1741 863 l 1
 1741 703 l 1
 1174 703 l 1
975 521 m 1
 975 1373 l 1
 501 521 l 1
 975 521 l 1
EndSplineSet
EndChar

StartChar: Eth
Encoding: 208 208 146
Width: 1444
GlyphClass: 2
Flags: HMW
LayerCount: 2
Fore
SplineSet
202 0 m 1
 202 696 l 1
 77 696 l 1
 77 822 l 1
 202 822 l 1
 202 1498 l 1
 724 1499 l 2
 892 1499 1003 1491 1057 1476 c 0
 1151 1449 1215 1393 1248 1310 c 128
 1281 1227 1297 1092 1297 903 c 2
 1297 594 l 2
 1297 407 1281 273 1248 191 c 128
 1215 109 1160 57 1084 34 c 128
 1008 11 888 0 724 0 c 2
 202 0 l 1
403 822 m 1
 635 822 l 1
 635 696 l 1
 403 696 l 1
 403 163 l 1
 724 162 l 2
 861 162 946 166 978 176 c 128
 1044 196 1066 226 1082 298 c 128
 1090 335 1095 433 1096 594 c 1
 1096 903 l 1
 1095 1064 1091 1162 1084 1197 c 128
 1071 1267 1052 1299 992 1322 c 128
 963 1333 890 1339 774 1339 c 2
 403 1338 l 1
 403 822 l 1
EndSplineSet
EndChar

StartChar: multiply
Encoding: 215 215 153
Width: 860
GlyphClass: 2
Flags: HMW
LayerCount: 2
Fore
SplineSet
535 670 m 1
 758 420 l 1
 640 288 l 1
 413 538 l 1
 187 288 l 1
 68 420 l 1
 292 670 l 1
 68 920 l 1
 187 1052 l 1
 413 802 l 1
 640 1052 l 1
 758 920 l 1
 535 670 l 1
EndSplineSet
EndChar

StartChar: Oslash
Encoding: 216 216 154
Width: 1436
GlyphClass: 2
Flags: HMW
LayerCount: 2
Fore
SplineSet
1060 1759 m 1
 469 -300 l 1
 336 -300 l 1
 927 1759 l 1
 1060 1759 l 1
EndSplineSet
Refer: 51 79 N 1 0 0 1 0 0 3
EndChar

StartChar: Thorn
Encoding: 222 222 160
Width: 1286
GlyphClass: 2
Flags: HMW
LayerCount: 2
Fore
SplineSet
697 1299 m 2
 859 1299 973 1275 1038 1227 c 0
 1122 1165 1164 1038 1164 847 c 128
 1164 656 1120 529 1032 468 c 0
 979 431 919 410 853 405 c 128
 787 400 732 398 685 398 c 2
 366 398 l 1
 366 0 l 1
 168 0 l 1
 168 1498 l 1
 366 1498 l 1
 366 1299 l 1
 697 1299 l 2
679 559 m 2
 806 559 882 572 909 599 c 128
 968 657 968 725 968 847 c 128
 968 955 966 1048 916 1096 c 0
 885 1127 808 1142 685 1142 c 2
 366 1142 l 1
 366 559 l 1
 679 559 l 2
EndSplineSet
EndChar

StartChar: germandbls
Encoding: 223 223 161
Width: 1243
GlyphClass: 2
Flags: HMW
LayerCount: 2
Fore
SplineSet
1048 1147 m 0
 1048 944 999 838 901 828 c 1
 962 825 1014 792 1057 726 c 128
 1100 660 1122 548 1122 390 c 0
 1122 163 1026 37 834 12 c 0
 769 4 696 0 614 0 c 2
 467 0 l 1
 467 157 l 1
 613 157 l 2
 727 157 802 161 839 168 c 128
 876 175 900 195 911 228 c 0
 922 259 927 322 927 415 c 0
 927 426 927 426 927 438 c 0
 926 545 923 611 917 637 c 0
 905 685 879 714 841 725 c 128
 803 736 725 741 606 741 c 2
 502 741 l 1
 502 887 l 1
 588 887 l 2
 687 887 753 890 785 896 c 128
 817 902 836 920 844 946 c 128
 852 972 856 1027 856 1112 c 128
 856 1197 852 1253 845 1280 c 128
 838 1307 821 1325 792 1332 c 128
 763 1339 703 1342 609 1342 c 128
 515 1342 453 1338 423 1330 c 128
 393 1322 375 1303 367 1274 c 128
 359 1245 355 1184 355 1090 c 2
 356 -150 l 1
 159 -150 l 1
 160 1102 l 2
 160 1259 194 1364 263 1418 c 128
 332 1472 446 1499 606 1499 c 128
 766 1499 880 1474 947 1425 c 128
 1014 1376 1048 1283 1048 1147 c 0
EndSplineSet
EndChar

StartChar: ae
Encoding: 230 230 168
Width: 1718
GlyphClass: 2
Flags: HMW
LayerCount: 2
Fore
SplineSet
448 104 m 0
 714.305664062 104 752 193.189453125 752 342 c 2
 752 468.959960938 l 1
 550.29296875 459.952148438 430.364257812 443.982421875 395 432 c 1
 300 414 282 403 282 335 c 2
 283 205 l 2
 283 117.3984375 319 104 448 104 c 0
1176 104 m 0
 1344.89746094 104 1396 126 1396 173 c 0
 1396 264.7109375 1395 318.658203125 1394 337 c 1
 1562 327 l 1
 1565 232 1566 183 1566 177 c 0
 1566 7 1418.6171875 -24 1198 -24 c 0
 988.2890625 -24 867.138671875 -6.6552734375 811.758789062 128.4609375 c 1
 748.8203125 -3.2392578125 617.553710938 -24 422 -24 c 0
 193 -24 103 58 103 250 c 0
 103 437 154 524 390 560 c 1
 479.567382812 574 597.124023438 588 752 598 c 1
 752 705.333007812 752 812.666992188 752 920 c 0
 752 984.583007812 695.57421875 995 557 995 c 0
 373.041015625 995 322 971.900390625 322 932 c 0
 322 887.705078125 323 846.651367188 326 811 c 1
 161 791 l 1
 153 829 149 850 149 895 c 0
 149 1098 333.107421875 1123 571 1123 c 0
 689.342773438 1123 782.430664062 1103.64746094 844.6953125 1039.07421875 c 1
 909.1171875 1106.6953125 1011.77832031 1123 1164 1123 c 0
 1473.6328125 1123 1579 1075 1579 767 c 2
 1579 555 l 1
 947 555 l 1
 947 440.333007812 947 325.666992188 947 211 c 0
 947 119 998.078125 104 1176 104 c 0
947 890 m 0
 947 809.333007812 947 728.666992188 947 648 c 1
 1384 648 l 1
 1384 890 l 2
 1384 980.587890625 1326.00390625 995 1165 995 c 0
 983.333007812 995 947 983.676757812 947 890 c 0
EndSplineSet
EndChar

StartChar: eth
Encoding: 240 240 178
Width: 1212
GlyphClass: 2
Flags: HMW
LayerCount: 2
Back
SplineSet
602.486328125 -181 m 260
 263.486328125 -181 143.486328125 -134 143.486328125 179 c 6
 143.486328125 610 l 6
 143.486328125 919 263.486328125 966 602.486328125 966 c 4
 938.486328125 966 1062.48632812 920 1062.48632812 610 c 6
 1062.48632812 185 l 6
 1062.48632812 -131 946.486328125 -181 602.486328125 -181 c 260
865.486328125 735 m 6
 865.486328125 843.15 772.486328125 838 602.486328125 838 c 4
 438.486328125 838 338.486328125 842.12 338.486328125 735 c 6
 338.486328125 39 l 6
 338.486328125 -51.9662921348 429.486328125 -53 602.486328125 -53 c 4
 785.486328125 -53 865.486328125 -41.6451612903 865.486328125 43 c 6
 865.486328125 735 l 6
EndSplineSet
Fore
SplineSet
286.513671875 1377.90039062 m 17
 796.07421875 1327.22265625 876.02734375 1301.65820312 876.02734375 816 c 1
 856.677734375 916 735.3046875 966 511.02734375 966 c 0
 204.669921875 966 102.815429688 853.204101562 100.259765625 598.900390625 c 2
 99.02734375 390.900390625 l 2
 97.0361328125 54.7548828125 203.02734375 -24 606.02734375 -24 c 0
 965.610351562 -24 1074.02734375 63 1074.02734375 457 c 0
 1074.02734375 1344.18261719 938.513671875 1467.90039062 305.02734375 1497 c 9
 286.513671875 1377.90039062 l 17
606.02734375 837.900390625 m 128
 853.920898438 837.900390625 876.02734375 783.34765625 876.02734375 650.900390625 c 130
 876.02734375 211.80078125 l 2
 876.02734375 118.668945312 874.337890625 103.900390625 604.02734375 103.900390625 c 128
 327.31640625 103.900390625 292.462890625 111.786132812 292.475585938 213.80078125 c 2
 292.536132812 713.80078125 l 2
 292.55078125 829.359375 328.98828125 837.900390625 606.02734375 837.900390625 c 128
954.02734375 1557 m 1
 532.02734375 1135 l 1
 592.02734375 1075 l 1
 1014.02734375 1497 l 1
 954.02734375 1557 l 1
EndSplineSet
EndChar

StartChar: oslash
Encoding: 248 248 186
Width: 1176
GlyphClass: 2
Flags: HMW
LayerCount: 2
Fore
SplineSet
797 1299 m 1
 476 -200 l 1
 383 -200 l 1
 704 1299 l 1
 797 1299 l 1
EndSplineSet
Refer: 83 111 N 1 0 0 1 -2 0 2
EndChar

StartChar: thorn
Encoding: 254 254 192
Width: 1216
GlyphClass: 2
Flags: HMW
LayerCount: 2
Fore
SplineSet
721 1180 m 0
 977 1180 1076 1066 1076 808 c 2
 1076 387 l 2
 1076 236 1053 130 1006 68 c 128
 959 6 872 -24 745 -24 c 0
 529 -24 402 19 363 105 c 1
 363 -402 l 1
 169 -402 l 1
 169 1594 l 1
 362 1594 l 1
 362 1053 l 1
 387 1138 507 1180 721 1180 c 0
610 1018 m 128
 531 1018 474 1015 440 1008 c 128
 406 1001 384 985 376 959 c 128
 368 933 363 880 363 799 c 2
 363 342 l 2
 363 245 372 188 388 172 c 128
 404 156 427 147 458 144 c 128
 489 141 546 139 627 139 c 128
 708 139 766 142 801 148 c 128
 836 154 857 169 866 193 c 128
 875 217 880 267 880 342 c 2
 880 799 l 2
 880 907 872 970 854 986 c 128
 836 1002 811 1011 778 1014 c 128
 745 1017 689 1018 610 1018 c 128
EndSplineSet
EndChar

StartChar: dcroat
Encoding: 273 273 209
Width: 1209
GlyphClass: 2
Flags: HMW
LayerCount: 2
Fore
SplineSet
113 371 m 2
 113 103 190 -14 490 -14 c 0
 674 -14 783 39 816 144 c 1
 838 0 l 1
 1013 0 l 1
 1013 1261 l 1
 1158 1261 l 1
 1158 1364 l 1
 1013 1364 l 1
 1013 1542 l 1
 818 1542 l 1
 818 1364 l 1
 561 1364 l 1
 561 1261 l 1
 818 1261 l 1
 818 986 l 1
 780 1088 696 1133 510 1133 c 0
 226 1133 113 1030 113 778 c 2
 113 371 l 2
560 1005 m 0
 762 1005 818 984 818 866 c 2
 818 246 l 2
 818 134 747 114 559 114 c 0
 354 114 308 134 308 221 c 2
 308 879 l 2
 308 994 357 1005 560 1005 c 0
EndSplineSet
EndChar

StartChar: Hbar
Encoding: 294 294 222
Width: 1406
GlyphClass: 2
Flags: HMW
LayerCount: 2
Fore
SplineSet
1124 1190 m 5
 1124 1063 l 5
 267 1063 l 1
 267 1190 l 1
 1124 1190 l 5
EndSplineSet
Refer: 44 72 N 1 0 0 1 0 0 3
EndChar

StartChar: dotlessi
Encoding: 305 305 233
Width: 510
GlyphClass: 2
Flags: HMW
LayerCount: 2
Fore
SplineSet
349 1147 m 1
 349 0 l 1
 153 0 l 1
 153 1147 l 1
 349 1147 l 1
EndSplineSet
EndChar

StartChar: Lslash
Encoding: 321 321 249
Width: 1040
GlyphClass: 2
Flags: HMW
LayerCount: 2
Fore
SplineSet
212 0 m 1
 212 632 l 1
 79 568 l 1
 79 754 l 1
 212 818 l 1
 212 1499 l 1
 414 1499 l 1
 414 915 l 1
 713 1054 l 1
 713 868 l 1
 414 729 l 1
 414 164 l 1
 964 164 l 1
 964 0 l 1
 212 0 l 1
EndSplineSet
EndChar

StartChar: lslash
Encoding: 322 322 250
Width: 699
GlyphClass: 2
Flags: HMW
LayerCount: 2
Fore
SplineSet
425 0 m 1
 231 0 l 1
 231 660 l 1
 69 568 l 1
 69 754 l 1
 231 846 l 1
 231 1552 l 1
 425 1552 l 1
 425 956 l 1
 597 1054 l 1
 597 868 l 1
 425 770 l 1
 425 0 l 1
EndSplineSet
EndChar

StartChar: OE
Encoding: 338 338 263
Width: 2055
GlyphClass: 2
Flags: HMW
LayerCount: 2
Fore
SplineSet
1929 1499 m 1
 1929 1339 l 1
 1282 1339 l 1
 1282 863 l 1
 1848 863 l 1
 1848 703 l 1
 1282 703 l 1
 1282 160 l 1
 1945 160 l 1
 1945 0 l 1
 710 0 l 2
 533 0 410 10 340 28 c 128
 270 46 219 95 186 176 c 128
 153 257 137 397 137 594 c 2
 137 903 l 2
 137 1101 153 1241 186 1322 c 128
 219 1403 271 1453 342 1472 c 128
 413 1491 509 1500 630 1500 c 2
 913 1500 l 1
 1276 1499 l 2
 1603 1499 1603 1499 1929 1499 c 1
1082 160 m 1
 1082 1341 l 1
 710 1341 l 2
 572 1341 487 1336 454 1327 c 128
 385 1307 363 1276 346 1202 c 128
 337 1164 333 1064 333 903 c 2
 333 594 l 2
 333 445 336 344 344 290 c 128
 352 236 372 201 402 184 c 128
 432 167 494 159 589 159 c 2
 899 159 l 1
 1043 160 l 2
 1063 160 1063 160 1082 160 c 1
EndSplineSet
EndChar

StartChar: oe
Encoding: 339 339 264
Width: 1874
GlyphClass: 2
Flags: HMW
LayerCount: 2
Fore
SplineSet
843 892 m 2
 843 1000.15039062 750 995 580 995 c 0
 416 995 316 999.120117188 316 892 c 2
 316 196 l 2
 316 105.034179688 407 104 580 104 c 0
 763 104 843 115.354492188 843 200 c 2
 843 892 l 2
580 -24 m 0
 241 -24 121 23 121 336 c 2
 121 767 l 2
 121 1076 241 1123 580 1123 c 0
 751.52734375 1123 867.563476562 1110.90722656 939.920898438 1057.33691406 c 1
 1010.92578125 1110.30273438 1124.9765625 1123 1295 1123 c 0
 1623.28515625 1123 1735 1075 1735 767 c 2
 1735 555 l 1
 1038 555 l 1
 1038 440.333007812 1038 211 1038 211 c 2
 1038 119 1098 104 1307 104 c 0
 1495.09082031 104 1552 126 1552 173 c 0
 1552 264.7109375 1551 318.658203125 1550 337 c 1
 1718 327 l 1
 1721 232 1722 183 1722 177 c 0
 1722 7 1564.60449219 -24 1329 -24 c 0
 1143.03222656 -24 1017.69824219 -15.017578125 940.951171875 43.10546875 c 1
 869.512695312 -11.083984375 754.076171875 -24 580 -24 c 0
1038 890 m 2
 1038 648 l 1
 1540 648 l 1
 1540 890 l 2
 1540 980.587890625 1475.38378906 995 1296 995 c 0
 1081 995 1038 983.676757812 1038 890 c 2
EndSplineSet
EndChar

StartChar: florin
Encoding: 402 402 298
Width: 695
GlyphClass: 2
Flags: HMW
LayerCount: 2
Fore
SplineSet
424 1579 m 128
 471 1579 529 1573 599 1561 c 1
 599 1412 l 1
 400 1412 l 1
 400 855 l 1
 595 855 l 1
 595 736 l 1
 400 736 l 1
 400 -50 l 2
 400 -84 399 -117 397 -148 c 0
 388 -257 314 -312 175 -312 c 0
 132 -312 76 -306 9 -294 c 1
 9 -145 l 1
 206 -145 l 1
 206 736 l 1
 43 736 l 1
 43 855 l 1
 206 855 l 1
 204 1271 l 2
 204 1375 213 1444 232 1479 c 128
 268 1545 325 1579 424 1579 c 128
EndSplineSet
EndChar

StartChar: uni0237
Encoding: 567 567 301
Width: 496
GlyphClass: 2
Flags: HMW
LayerCount: 2
Fore
SplineSet
333 -49 m 2
 333 -202 277 -311 139 -311 c 128
 80 -311 26 -306 -24 -297 c 1
 -27 -156 l 1
 140 -156 l 1
 140 1147 l 1
 333 1147 l 1
 333 -49 l 2
EndSplineSet
EndChar

StartChar: circumflex
Encoding: 710 710 302
Width: 786
GlyphClass: 2
Flags: HMW
LayerCount: 2
Fore
SplineSet
678 1440 m 0
 678 1414 666 1401 641 1401 c 0
 630 1401 619 1406 607 1416 c 1
 400 1627 l 1
 193 1416 l 1
 181 1406 170 1401 160 1401 c 0
 135 1401 122 1414 122 1441 c 0
 122 1454 126 1468 135 1481 c 2
 306 1754 l 2
 324 1783 355 1798 400 1798 c 0
 444 1798 475 1783 494 1754 c 2
 664 1481 l 2
 673 1466 678 1453 678 1440 c 0
EndSplineSet
EndChar

StartChar: caron
Encoding: 711 711 303
Width: 696
GlyphClass: 2
Flags: HMW
LayerCount: 2
Fore
SplineSet
76 1626 m 0
 76 1653 88 1666 113 1666 c 0
 123 1666 134 1661 146 1651 c 1
 353 1440 l 1
 560 1651 l 1
 573 1661 584 1666 595 1666 c 0
 619 1666 631 1653 631 1626 c 0
 631 1615 627 1601 618 1586 c 2
 447 1313 l 2
 430 1284 399 1269 354 1269 c 0
 309 1269 277 1284 259 1313 c 2
 88 1586 l 2
 80 1599 76 1612 76 1626 c 0
EndSplineSet
EndChar

StartChar: breve
Encoding: 728 728 304
Width: 743
GlyphClass: 2
Flags: HMW
LayerCount: 2
Fore
SplineSet
378 1574 m 0
 504 1574 532 1618 532 1748 c 1
 674 1748 l 1
 674 1589 618 1495 507 1464 c 0
 470 1453 415 1448 341 1448 c 128
 267 1448 205 1471 156 1516 c 128
 107 1561 83 1638 83 1748 c 1
 225 1748 l 1
 224 1744 224 1740 224 1736 c 0
 224 1615 257 1574 378 1574 c 0
EndSplineSet
EndChar

StartChar: dotaccent
Encoding: 729 729 305
Width: 447
GlyphClass: 2
Flags: HMW
LayerCount: 2
Fore
SplineSet
128 1207 m 1
 129 1435 l 1
 325 1435 l 1
 326 1207 l 1
 128 1207 l 1
EndSplineSet
EndChar

StartChar: ring
Encoding: 730 730 306
Width: 745
GlyphClass: 2
Flags: HMW
LayerCount: 2
Fore
SplineSet
372 656 m 128
 520 656 630 555 630 402 c 0
 630 249 522 148 374 148 c 0
 304 148 244 170 193 215 c 128
 142 260 117 322 117 402 c 128
 117 555 224 656 372 656 c 128
358 538 m 128
 299 538 257 469 257 402 c 0
 257 311 300 265 385 265 c 0
 444 265 487 333 487 400 c 0
 487 482 445 538 358 538 c 128
EndSplineSet
EndChar

StartChar: ogonek
Encoding: 731 731 307
Width: 716
GlyphClass: 2
Flags: HMW
LayerCount: 2
Fore
SplineSet
314 -557 m 0
 179 -557 112 -508 112 -409 c 0
 112 -292 193 -162 355 -17 c 2
 374 0 l 1
 482 0 l 1
 398 -86 342 -175 314 -266 c 0
 305 -294 301 -319 301 -341 c 0
 301 -400 329 -429 385 -429 c 0
 426 -429 465 -420 502 -401 c 128
 539 -382 561 -373 568 -373 c 0
 593 -373 606 -387 606 -414 c 0
 606 -462 550 -503 439 -536 c 0
 390 -550 349 -557 314 -557 c 0
EndSplineSet
EndChar

StartChar: tilde
Encoding: 732 732 308
Width: 997
GlyphClass: 2
Flags: HMW
LayerCount: 2
Fore
SplineSet
645 379 m 0
 528.356445312 379 380.237304688 512 271 512 c 128
 206.041015625 512 172.479492188 481.020507812 140 443 c 128
 133 437 127 434 119 434 c 128
 111 434 107 439 107 449 c 0
 107 468 118 493 139 523 c 0
 198.196289062 614 265.588867188 660 343 660 c 0
 463.051757812 660 625.154296875 534 728 534 c 128
 790.463867188 534 827 567.384765625 860 596 c 128
 867 602 875 605 883 605 c 128
 891 605 894 598 894 584 c 128
 894 570 883 549 860 520 c 0
 792.297851562 426 720.936523438 379 645 379 c 0
EndSplineSet
EndChar

StartChar: hungarumlaut
Encoding: 733 733 309
Width: 1126
GlyphClass: 2
Flags: HMW
LayerCount: 2
Fore
SplineSet
517 1640 m 128
 566 1640 601 1584 601 1528 c 128
 601 1493 578 1463 533 1438 c 1
 519 1427 451 1399 328 1356 c 128
 205 1313 139 1292 128 1292 c 128
 117 1292 111 1297 111 1308 c 128
 111 1319 114 1327 120 1332 c 128
 126 1337 134 1346 145 1357 c 0
 314 1530 423 1623 470 1636 c 0
 482 1639 498 1640 517 1640 c 128
956 1640 m 128
 1013 1640 1049 1590 1049 1529 c 128
 1049 1494 1026 1464 981 1438 c 1
 967 1426 898 1399 776 1356 c 128
 654 1313 588 1292 576 1292 c 128
 564 1292 558 1297 558 1308 c 128
 558 1319 562 1328 568 1334 c 128
 574 1340 598 1363 640 1405 c 128
 699 1464 821 1580 886 1620 c 128
 908 1633 931 1640 956 1640 c 128
EndSplineSet
EndChar

StartChar: endash
Encoding: 8211 8211 313
Width: 1090
GlyphClass: 2
Flags: HMW
LayerCount: 2
Fore
SplineSet
961 754 m 1
 961 568 l 1
 134 568 l 1
 134 754 l 1
 961 754 l 1
EndSplineSet
EndChar

StartChar: emdash
Encoding: 8212 8212 314
Width: 1872
GlyphClass: 2
Flags: HMW
LayerCount: 2
Fore
SplineSet
1743 754 m 1
 1743 568 l 1
 134 568 l 1
 134 754 l 1
 1743 754 l 1
EndSplineSet
EndChar

StartChar: quoteleft
Encoding: 8216 8216 315
Width: 525
GlyphClass: 2
Flags: HMW
LayerCount: 2
Fore
SplineSet
271 1000 m 0
 169 1000 118 1067 118 1202 c 0
 118 1291 146 1372 203 1444 c 128
 260 1516 331 1552 416 1552 c 1
 416 1484 l 1
 329 1484 279 1384 279 1285 c 1
 367 1285 411 1235 411 1135 c 0
 411 1106 398 1077 373 1046 c 128
 348 1015 314 1000 271 1000 c 0
EndSplineSet
EndChar

StartChar: quoteright
Encoding: 8217 8217 316
Width: 525
GlyphClass: 2
Flags: HMW
LayerCount: 2
Fore
SplineSet
288 1552 m 128
 373 1552 422 1463 422 1350 c 0
 422 1262 393 1182 336 1109 c 128
 279 1036 208 1000 123 1000 c 1
 123 1068 l 1
 212 1068 260 1166 260 1267 c 1
 172 1267 128 1317 128 1417 c 0
 128 1446 140 1475 166 1506 c 128
 192 1537 233 1552 288 1552 c 128
EndSplineSet
EndChar

StartChar: quotesinglbase
Encoding: 8218 8218 317
Width: 408
GlyphClass: 2
Flags: HMW
LayerCount: 2
Fore
SplineSet
195 300 m 128
 285 300 293 263 293 154 c 128
 293 87 282 6 261 -90 c 128
 240 -186 228 -240 225 -254 c 128
 222 -268 214 -275 202 -275 c 0
 197 -275 182 -225 157 -125 c 128
 132 -25 119 57 119 122 c 128
 119 187 121 228 126 244 c 0
 137 281 160 300 195 300 c 128
EndSplineSet
EndChar

StartChar: quotedblleft
Encoding: 8220 8220 318
Width: 1005
GlyphClass: 2
Flags: HMW
LayerCount: 2
Fore
SplineSet
271 1000 m 0
 169 1000 118 1067 118 1202 c 0
 118 1291 146 1372 203 1444 c 128
 260 1516 332 1552 418 1552 c 1
 418 1484 l 1
 329 1484 279 1385 279 1285 c 1
 368 1285 413 1235 413 1135 c 0
 413 1106 401 1077 375 1046 c 128
 349 1015 314 1000 271 1000 c 0
733 1000 m 128
 649 1000 596 1089 596 1202 c 0
 596 1291 625 1372 683 1444 c 128
 741 1516 811 1552 896 1552 c 1
 896 1484 l 1
 809 1484 760 1385 760 1285 c 1
 847 1285 891 1235 891 1135 c 0
 891 1106 878 1077 853 1046 c 128
 828 1015 788 1000 733 1000 c 128
EndSplineSet
EndChar

StartChar: quotedblright
Encoding: 8221 8221 319
Width: 1005
GlyphClass: 2
Flags: HMW
LayerCount: 2
Fore
SplineSet
768 1552 m 128
 853 1552 902 1463 902 1350 c 0
 902 1261 873 1180 816 1108 c 128
 759 1036 687 1000 602 1000 c 1
 602 1068 l 1
 692 1068 740 1165 740 1267 c 1
 651 1267 607 1317 607 1417 c 0
 607 1446 620 1475 646 1506 c 128
 672 1537 713 1552 768 1552 c 128
288 1552 m 128
 372 1552 425 1463 425 1350 c 0
 425 1262 396 1182 338 1109 c 128
 280 1036 208 1000 123 1000 c 1
 123 1068 l 1
 212 1068 260 1166 260 1267 c 1
 172 1267 128 1317 128 1417 c 0
 128 1446 140 1475 166 1506 c 128
 192 1537 233 1552 288 1552 c 128
EndSplineSet
EndChar

StartChar: quotedblbase
Encoding: 8222 8222 320
Width: 693
GlyphClass: 2
Flags: HMW
LayerCount: 2
Fore
SplineSet
205 300 m 0
 287 300 293 258 293 152 c 128
 293 84 281 -1 258 -102 c 128
 232 -216 228 -251 219 -270 c 128
 217 -274 214 -275 207 -275 c 128
 200 -275 197 -274 195 -271 c 128
 193 -268 179 -218 155 -121 c 128
 131 -24 119 57 119 122 c 128
 119 187 121 228 126 244 c 0
 135 281 162 300 205 300 c 0
488 -275 m 256
 480 -275 476 -273 476 -268 c 0
 476 -262 464 -210 440 -113 c 0
 416 -15 404 65 404 126 c 128
 404 219 400 250 434 284 c 128
 445 295 461 300 482 300 c 0
 519 300 544 293 557 278 c 128
 570 263 577 216 577 136 c 128
 577 56 565 -30 541 -124 c 128
 517 -218 505 -267 503 -270 c 128
 501 -273 496 -275 488 -275 c 256
EndSplineSet
EndChar

StartChar: dagger
Encoding: 8224 8224 321
Width: 830
GlyphClass: 2
Flags: HMW
LayerCount: 2
Fore
SplineSet
826 959 m 0
 826 899 780 865 710 865 c 128
 667 865 584 890 459 939 c 1
 491 595 514 331 529 146 c 1
 529 54 494 8 423 8 c 256
 352 8 317 54 317 146 c 1
 346 497 347 513 386 939 c 1
 377 936 344 923 286 900 c 128
 228 877 178 865 135 865 c 0
 58 865 20 901 20 972 c 0
 20 1031 52 1084 110 1084 c 128
 219 1084 310 1037 390 1007 c 1
 345 1209 323 1340 323 1398 c 128
 323 1456 334 1496 354 1518 c 128
 374 1540 397 1552 423 1552 c 0
 466 1552 496 1529 514 1482 c 0
 520 1465 523 1434 523 1390 c 128
 523 1346 500 1218 454 1007 c 1
 584 1058 674 1084 725 1084 c 0
 792 1084 826 1042 826 959 c 0
EndSplineSet
EndChar

StartChar: daggerdbl
Encoding: 8225 8225 322
Width: 1037
GlyphClass: 2
Flags: HMW
LayerCount: 2
Fore
SplineSet
526 1552 m 0
 612 1552 673 1497 673 1402 c 128
 673 1340 658 1283 643 1230 c 128
 627 1171 605 1105 589 1047 c 1
 732 1105 824 1134 867 1134 c 0
 946 1134 985 1089 985 1000 c 0
 985 934 932 895 855 895 c 128
 807 895 718 923 589 979 c 1
 589 535 l 1
 723 591 813 619 858 619 c 128
 940 619 985 576 985 500 c 128
 985 437 942 381 880 381 c 128
 763 381 675 433 589 467 c 1
 597 436 613 383 637 308 c 128
 661 233 673 168 673 114 c 128
 673 18 615 -38 526 -38 c 0
 438 -38 378 17 378 112 c 128
 378 210 410 293 435 374 c 128
 445 406 453 436 462 467 c 1
 331 410 242 381 195 381 c 128
 112 381 65 423 65 500 c 0
 65 579 109 619 196 619 c 0
 243 619 332 591 462 535 c 1
 462 979 l 1
 329 923 240 895 194 895 c 0
 108 895 65 934 65 1013 c 0
 65 1090 111 1134 194 1134 c 128
 240 1134 329 1105 462 1047 c 1
 454 1076 438 1129 414 1206 c 128
 390 1283 378 1348 378 1400 c 128
 378 1495 437 1552 526 1552 c 0
EndSplineSet
EndChar

StartChar: bullet
Encoding: 8226 8226 323
Width: 894
GlyphClass: 2
Flags: HMW
LayerCount: 2
Fore
SplineSet
459 1030 m 0
 566 1030 649 994 706 922 c 128
 763 850 792 764 792 664 c 256
 792 564 763 478 705 406 c 128
 647 334 564 298 457 298 c 0
 349 298 264 334 203 406 c 128
 142 478 111 563 111 662 c 0
 111 760 142 846 203 920 c 128
 264 994 350 1030 459 1030 c 0
EndSplineSet
EndChar

StartChar: ellipsis
Encoding: 8230 8230 324
Width: 1606
GlyphClass: 2
Flags: HMW
LayerCount: 2
Fore
SplineSet
252 -37 m 0
 168 -37 111 31 111 117 c 0
 111 202 160 271 252 271 c 0
 335 271 392 203 392 117 c 0
 392 34 344 -37 252 -37 c 0
664 118 m 128
 664 204 720 271 804 271 c 0
 885 271 945 212 945 117 c 0
 945 34 898 -37 806 -37 c 0
 723 -37 664 33 664 118 c 128
1358 -37 m 0
 1278 -37 1218 21 1218 117 c 0
 1218 211 1268 271 1372 271 c 128
 1443 271 1498 195 1498 117 c 0
 1498 34 1450 -37 1358 -37 c 0
EndSplineSet
EndChar

StartChar: guilsinglleft
Encoding: 8249 8249 325
Width: 721
GlyphClass: 2
Flags: HMW
LayerCount: 2
Fore
SplineSet
571 1254 m 0
 612 1254 633 1232 633 1188 c 0
 633 1171 625 1147 610 1116 c 1
 282 716 l 1
 610 316 l 1
 625 287 633 263 633 245 c 0
 633 200 611 178 568 178 c 0
 546 178 526 186 508 202 c 1
 127 574 l 2
 87 613 67 660 67 716 c 128
 67 772 87 819 127 858 c 2
 508 1229 l 1
 531 1246 552 1254 571 1254 c 0
EndSplineSet
EndChar

StartChar: guilsinglright
Encoding: 8250 8250 326
Width: 725
GlyphClass: 2
Flags: HMW
LayerCount: 2
Fore
SplineSet
100 1185 m 0
 100 1231 121 1254 162 1254 c 0
 182 1254 203 1246 225 1229 c 1
 606 858 l 2
 646 819 666 772 666 716 c 0
 666 661 646 614 606 574 c 2
 225 202 l 2
 208 186 189 178 166 178 c 0
 122 178 100 201 100 247 c 0
 100 266 108 289 123 316 c 1
 450 716 l 1
 123 1116 l 1
 108 1144 100 1167 100 1185 c 0
EndSplineSet
EndChar

StartChar: fraction
Encoding: 8260 8260 327
Width: 711
GlyphClass: 2
Flags: HMW
LayerCount: 2
Fore
SplineSet
710 1499 m 1
 114 0 l 1
 -10 0 l 1
 583 1499 l 1
 710 1499 l 1
EndSplineSet
EndChar

StartChar: Euro
Encoding: 8364 8364 328
Width: 1419
GlyphClass: 2
Flags: HMW
LayerCount: 2
Fore
SplineSet
972 650 m 1
 972 549 l 1
 58 549 l 1
 58 650 l 1
 972 650 l 1
58 823 m 1
 58 927 l 1
 972 928 l 1
 972 824 l 1
 58 823 l 1
1319 1166 m 128
 1319 1099 1316 1037 1311 980 c 1
 1128 980 l 1
 1127 1125 1123 1213 1116 1244 c 128
 1102 1306 1079 1332 1019 1348 c 128
 990 1356 928 1360 833 1360 c 128
 738 1360 670 1359 628 1358 c 128
 552 1356 491 1345 458 1304 c 128
 443 1286 432 1255 423 1213 c 128
 414 1171 410 1068 410 903 c 2
 410 594 l 2
 410 430 414 326 423 284 c 128
 439 204 459 173 530 153 c 128
 562 144 626 139 723 139 c 128
 820 139 888 139 927 140 c 128
 1038 143 1096 165 1116 259 c 128
 1123 291 1127 384 1128 537 c 1
 1311 537 l 1
 1314 467 1316 408 1316 360 c 0
 1316 151 1246 30 1105 -1 c 1
 1016 -20 920 -29 817 -29 c 0
 689 -29 474 -6 434 6 c 0
 351 31 293 87 260 172 c 128
 227 257 210 398 210 594 c 2
 210 903 l 2
 210 1094 226 1234 258 1320 c 128
 290 1406 342 1461 415 1486 c 128
 488 1511 587 1523 714 1523 c 128
 841 1523 940 1520 1012 1512 c 128
 1151 1497 1241 1450 1286 1344 c 128
 1308 1293 1319 1233 1319 1166 c 128
EndSplineSet
EndChar

StartChar: trademark
Encoding: 8482 8482 329
Width: 1125
GlyphClass: 2
Flags: HMW
LayerCount: 2
Fore
SplineSet
428.73046875 1521 m 1
 428.73046875 1447.85546875 l 1
 307.0703125 1447.85546875 l 1
 307.0703125 990.249023438 l 1
 205.26953125 990.249023438 l 1
 205.26953125 1447.85546875 l 1
 83 1447.85546875 l 1
 83 1521 l 1
 428.73046875 1521 l 1
601.450195312 990.249023438 m 1
 515.259765625 990.249023438 l 1
 515.259765625 1521 l 1
 633.870117188 1521 l 1
 758.290039062 1131.875 l 1
 874.01953125 1521 l 1
 993.3203125 1521 l 1
 993.3203125 990.249023438 l 1
 897.129882812 990.249023438 l 1
 897.129882812 1346.17773438 l 1
 790.099609375 990.249023438 l 1
 706.169921875 990.249023438 l 1
 601.450195312 1346.17773438 l 1
 601.450195312 990.249023438 l 1
EndSplineSet
EndChar

StartChar: uniF6C3
Encoding: 63171 63171 330
Width: 679
GlyphClass: 2
Flags: HMW
LayerCount: 2
Fore
SplineSet
331 -140 m 0
 437 -140 503 -226 503 -356 c 0
 503 -444 473 -522 413 -590 c 128
 353 -658 279 -691 190 -691 c 1
 190 -631 l 1
 269 -628 318 -555 318 -466 c 1
 223 -461 176 -404 176 -296 c 0
 176 -264 191 -230 219 -194 c 128
 247 -158 284 -140 331 -140 c 0
EndSplineSet
EndChar

StartChar: fi
Encoding: 64257 64257 331
Width: 1191
GlyphClass: 2
Flags: HMW
LayerCount: 2
Fore
SplineSet
199 1350 m 0
 199 1507 254 1579 413 1579 c 128
 470 1579 539 1573 619 1561 c 1
 619 1412 l 1
 396 1412 l 1
 396 1147 l 1
 1023 1147 l 1
 1023 0 l 1
 827 0 l 1
 827 1028 l 1
 396 1028 l 1
 396 0 l 1
 201 0 l 1
 201 1028 l 1
 73 1028 l 1
 73 1147 l 1
 201 1147 l 1
 201 1218 200 1280 199 1334 c 0
 199 1342 199 1342 199 1350 c 0
1023 1384 m 1
 827 1384 l 1
 827 1571 l 1
 1023 1571 l 1
 1023 1384 l 1
EndSplineSet
Ligature2: "'liga'" f i
EndChar

StartChar: fl
Encoding: 64258 64258 332
Width: 1179
GlyphClass: 2
Flags: HMW
LayerCount: 2
Fore
SplineSet
666 1576 m 128
 782 1576 898 1571 1013 1561 c 1
 1012 0 l 1
 818 0 l 1
 818 1412 l 1
 396 1412 l 1
 396 1147 l 1
 597 1147 l 1
 597 1028 l 1
 396 1028 l 1
 396 0 l 1
 201 0 l 1
 201 1028 l 1
 73 1028 l 1
 73 1147 l 1
 201 1147 l 1
 200 1220 l 1
 199 1316 l 2
 199 1393 204 1444 214 1468 c 128
 245 1547 320 1563 426 1571 c 128
 469 1574 550 1576 666 1576 c 128
EndSplineSet
Ligature2: "'liga'" f l
EndChar

StartChar: uni0326
Encoding: 806 806 333
Width: 679
GlyphClass: 2
Flags: HMW
LayerCount: 2
Fore
SplineSet
331 -140 m 0
 437 -140 503 -226 503 -356 c 0
 503 -444 473 -522 413 -590 c 128
 353 -658 279 -691 190 -691 c 1
 190 -631 l 1
 269 -628 318 -555 318 -466 c 1
 223 -461 176 -404 176 -296 c 0
 176 -264 191 -230 219 -194 c 128
 247 -158 284 -140 331 -140 c 0
EndSplineSet
EndChar

